<svg width="64" height="64" viewBox="0 0 64 64" fill="none" xmlns="http://www.w3.org/2000/svg">
<rect width="64" height="64" rx="32" fill="#F1F9F7"/>
<path d="M26.3719 25.2891C26.7156 23.8672 27.3484 22.75 28.2703 21.9375C29.2078 21.1094 30.4266 20.6953 31.9266 20.6953C33.4734 20.6953 34.7391 21.1406 35.7234 22.0312C36.7234 22.9219 37.2234 24.1484 37.2234 25.7109C37.2234 27.4922 36.3016 29.2656 34.4578 31.0312C34.3016 31.1875 33.9891 31.4844 33.5203 31.9219C33.0672 32.3594 32.7703 32.6484 32.6297 32.7891C32.4891 32.9297 32.2391 33.1797 31.8797 33.5391C31.5203 33.8828 31.2703 34.1328 31.1297 34.2891C31.0047 34.4453 30.8172 34.6719 30.5672 34.9688C30.3172 35.2656 30.1297 35.5156 30.0047 35.7188C29.8797 35.9062 29.7469 36.125 29.6062 36.375C29.4656 36.625 29.3406 36.875 29.2312 37.125H37.2V39H26.4891C26.4891 38.3438 26.6141 37.6719 26.8641 36.9844C27.1297 36.2969 27.4109 35.7031 27.7078 35.2031C28.0203 34.7031 28.5125 34.0859 29.1844 33.3516C29.8719 32.6016 30.4031 32.0469 30.7781 31.6875C31.1687 31.3281 31.7937 30.7422 32.6531 29.9297C34.1375 28.5078 34.8797 27.0859 34.8797 25.6641C34.8797 24.6797 34.6062 23.9141 34.0594 23.3672C33.5125 22.8203 32.7859 22.5469 31.8797 22.5469C30.9578 22.5469 30.2 22.8438 29.6062 23.4375C29.0125 24.0156 28.5906 24.8125 28.3406 25.8281L26.3719 25.2891Z" fill="#007D57"/>
</svg>
