<svg width="64" height="64" viewBox="0 0 64 64" fill="none" xmlns="http://www.w3.org/2000/svg">
<rect width="64" height="64" rx="32" fill="#F1F9F7"/>
<path d="M26.0203 35.7422L27.8953 35.0156C28.7078 36.7031 29.9734 37.5469 31.6922 37.5469C32.7234 37.5469 33.5828 37.2422 34.2703 36.6328C34.9734 36.0078 35.325 35.125 35.325 33.9844C35.325 32.9219 34.9422 32.0859 34.1766 31.4766C33.4109 30.8516 32.4656 30.5391 31.3406 30.5391C30.9031 30.5391 30.4031 30.5625 29.8406 30.6094V28.7344C30.2 28.7656 30.6687 28.7812 31.2469 28.7812C32.2156 28.7812 33.0203 28.5 33.6609 27.9375C34.3016 27.3594 34.6219 26.5703 34.6219 25.5703C34.6219 24.6953 34.3406 23.9766 33.7781 23.4141C33.2156 22.8359 32.4891 22.5469 31.5984 22.5469C30.1453 22.5469 29.0672 23.4375 28.3641 25.2188L26.4891 24.6094C26.8484 23.4531 27.4656 22.5156 28.3406 21.7969C29.2312 21.0625 30.3562 20.6953 31.7156 20.6953C33.325 20.6953 34.5984 21.1406 35.5359 22.0312C36.4891 22.9062 36.9656 24.0156 36.9656 25.3594C36.9656 26.3594 36.7 27.2266 36.1687 27.9609C35.6375 28.6797 34.9969 29.2031 34.2469 29.5312C35.1531 29.7969 35.95 30.3047 36.6375 31.0547C37.325 31.8047 37.6687 32.7812 37.6687 33.9844C37.6687 35.7031 37.1219 37.0391 36.0281 37.9922C34.95 38.9453 33.5125 39.4219 31.7156 39.4219C30.3094 39.4219 29.1062 39.0703 28.1062 38.3672C27.1062 37.6484 26.4109 36.7734 26.0203 35.7422Z" fill="#007D57"/>
</svg>
