<svg width="107" height="41" viewBox="0 0 107 41" fill="none" xmlns="http://www.w3.org/2000/svg">
<g clip-path="url(#clip0_1_28)">
<path d="M14.5 40.5C11.685 40.5 9.167 40.037 6.944 39.111C4.759 38.148 3.056 36.778 1.834 35C0.61 33.222 0 31.148 0 28.778C0 26.593 0.537 24.685 1.611 23.056C2.722 21.389 4.204 20.111 6.056 19.222C4.574 18.37 3.426 17.259 2.611 15.889C1.796 14.482 1.389 12.833 1.389 10.944C1.389 7.722 2.593 5.185 5 3.334C7.407 1.443 10.574 0.5 14.5 0.5C18.426 0.5 21.574 1.426 23.944 3.278C26.352 5.13 27.556 7.685 27.556 10.944C27.556 12.796 27.148 14.426 26.333 15.834C25.519 17.204 24.389 18.334 22.944 19.222C24.796 20.112 26.259 21.389 27.334 23.056C28.443 24.686 29 26.61 29 28.833C29 31.203 28.389 33.278 27.167 35.056C25.944 36.796 24.222 38.148 22 39.111C19.815 40.037 17.315 40.5 14.5 40.5ZM14.5 17.278C16.76 17.204 18.667 16.611 20.222 15.5C21.778 14.389 22.556 12.907 22.556 11.056C22.556 9.166 21.778 7.666 20.222 6.556C18.704 5.407 16.796 4.833 14.5 4.833C12.167 4.833 10.24 5.407 8.722 6.556C7.204 7.666 6.444 9.166 6.444 11.056C6.444 12.944 7.204 14.463 8.722 15.611C10.241 16.722 12.167 17.278 14.5 17.278ZM14.5 36.167C17.13 36.167 19.315 35.5 21.056 34.167C22.833 32.833 23.722 31.056 23.722 28.833C23.722 26.611 22.833 24.833 21.056 23.5C19.315 22.167 17.13 21.5 14.5 21.5C11.833 21.5 9.611 22.167 7.833 23.5C6.093 24.833 5.223 26.611 5.223 28.833C5.223 31.056 6.093 32.833 7.833 34.167C9.611 35.5 11.833 36.167 14.5 36.167ZM49.655 40.5C44.877 40.5 41.377 39.111 39.155 36.333C36.97 33.519 35.803 29.852 35.655 25.333L35.599 20.556L35.655 15.611C35.766 11.13 36.933 7.5 39.155 4.722C41.415 1.907 44.915 0.5 49.655 0.5C54.433 0.5 57.933 1.907 60.155 4.722C62.415 7.5 63.599 11.13 63.711 15.612C63.748 16.648 63.766 18.296 63.766 20.556C63.766 22.741 63.748 24.333 63.711 25.333C63.562 29.852 62.377 33.519 60.155 36.333C57.97 39.111 54.47 40.5 49.655 40.5ZM49.655 35.889C52.507 35.889 54.655 34.944 56.099 33.056C57.544 31.166 58.303 28.5 58.377 25.056C58.414 23.981 58.433 22.444 58.433 20.444C58.433 18.407 58.414 16.889 58.377 15.889C58.303 12.482 57.525 9.833 56.044 7.944C54.599 6.019 52.47 5.056 49.654 5.056C46.84 5.056 44.71 6.019 43.266 7.944C41.822 9.834 41.062 12.482 40.988 15.889L40.933 20.444L40.988 25.056C41.062 28.5 41.822 31.166 43.266 33.056C44.711 34.944 46.84 35.889 49.655 35.889ZM77.978 20.556C75.57 20.556 73.663 19.926 72.256 18.666C70.886 17.37 70.144 15.593 70.033 13.333C69.9917 12.519 69.9733 11.704 69.978 10.889C69.978 9.815 69.996 8.944 70.033 8.278C70.144 5.981 70.867 4.167 72.2 2.833C73.533 1.463 75.46 0.778 77.978 0.778C80.496 0.778 82.422 1.463 83.756 2.833C85.126 4.167 85.866 5.981 85.978 8.278C86.052 9.611 86.089 10.481 86.089 10.888C86.089 11.259 86.052 12.074 85.978 13.333C85.867 15.593 85.108 17.37 83.7 18.667C82.293 19.926 80.385 20.556 77.978 20.556ZM73.31 39.944C72.977 39.944 72.7 39.852 72.477 39.667C72.3673 39.5582 72.281 39.4281 72.2236 39.2846C72.1661 39.1412 72.1387 38.9875 72.143 38.833C72.143 38.611 72.218 38.407 72.366 38.223L99.81 2.11C100.106 1.703 100.366 1.425 100.588 1.277C100.847 1.129 101.199 1.055 101.644 1.055H103.421C103.755 1.055 104.014 1.165 104.199 1.388C104.421 1.573 104.532 1.832 104.532 2.166C104.531 2.38899 104.453 2.60474 104.31 2.776L76.922 38.89C76.626 39.26 76.348 39.538 76.089 39.723C75.867 39.871 75.533 39.945 75.089 39.945H73.311L73.31 39.944ZM77.977 17.167C79.31 17.167 80.292 16.777 80.921 16C81.551 15.222 81.921 14.26 82.032 13.111C82.107 11.778 82.143 11 82.143 10.778C82.143 10.444 82.106 9.685 82.033 8.5C81.958 7.352 81.588 6.389 80.921 5.611C80.291 4.796 79.311 4.389 77.977 4.389C76.643 4.389 75.662 4.796 75.032 5.611C74.402 6.389 74.051 7.351 73.977 8.5C73.9355 9.2586 73.9168 10.0183 73.921 10.778C73.921 11.667 73.94 12.444 73.977 13.111C74.088 14.222 74.44 15.185 75.032 16C75.662 16.778 76.643 17.167 77.977 17.167ZM98.643 40.277C96.236 40.277 94.329 39.593 92.921 38.222C91.551 36.852 90.811 35.037 90.699 32.778C90.625 31.667 90.588 30.926 90.588 30.556C90.588 30.186 90.625 29.259 90.699 27.778C90.81 25.482 91.532 23.667 92.866 22.333C94.199 20.963 96.125 20.278 98.643 20.278C101.162 20.278 103.088 20.963 104.421 22.333C105.792 23.667 106.532 25.482 106.644 27.778C106.718 29.111 106.755 29.963 106.755 30.333C106.755 30.703 106.718 31.519 106.644 32.778C106.532 35.037 105.773 36.852 104.366 38.222C102.958 39.592 101.051 40.277 98.643 40.277ZM98.643 36.667C99.977 36.667 100.958 36.277 101.588 35.5C102.218 34.722 102.588 33.76 102.699 32.611C102.773 31.278 102.81 30.481 102.81 30.222C102.81 29.926 102.773 29.185 102.699 28C102.625 26.852 102.255 25.889 101.588 25.111C100.958 24.296 99.977 23.889 98.643 23.889C97.31 23.889 96.329 24.296 95.699 25.111C95.069 25.889 94.718 26.851 94.643 28C94.6023 28.7399 94.5839 29.4809 94.588 30.222C94.588 31.148 94.607 31.944 94.643 32.612C94.718 33.722 95.069 34.685 95.699 35.5C96.329 36.278 97.31 36.667 98.643 36.667Z" fill="black" fill-opacity="0.87"/>
</g>
<defs>
<clipPath id="clip0_1_28">
<rect width="107" height="40" fill="white" transform="translate(0 0.5)"/>
</clipPath>
</defs>
</svg>
