<svg width="65" height="65" viewBox="0 0 65 65" fill="none" xmlns="http://www.w3.org/2000/svg">
<g clip-path="url(#clip0_28_31)">
<path d="M32.2244 64.0156C49.8975 64.0156 64.2244 49.6887 64.2244 32.0156C64.2244 14.3425 49.8975 0.015625 32.2244 0.015625C14.5513 0.015625 0.224365 14.3425 0.224365 32.0156C0.224365 49.6887 14.5513 64.0156 32.2244 64.0156Z" fill="#FFEBF0"/>
<path fill-rule="evenodd" clip-rule="evenodd" d="M45.4429 22.0156H18.8958C17.4213 22.0175 16.2256 23.2262 16.2244 24.7187V39.2275C16.2262 40.7194 17.4213 41.9287 18.8964 41.9306H39.9358C41.1216 41.9306 42.2176 41.4275 43.2004 40.4362C43.401 40.23 43.7069 39.9244 44.0558 39.5744C45.073 38.5537 46.4687 37.1568 46.9253 36.6537C47.6865 35.8369 48.111 34.7552 48.1118 33.6306V24.7181C48.1118 23.2268 46.9173 22.0175 45.4429 22.0156ZM37.4749 27.0331C37.9384 27.0427 38.3906 27.1801 38.7832 27.4306C39.1309 27.6368 39.4084 27.9444 39.5801 28.3125C39.7401 28.6668 39.8127 29.0562 39.7893 29.445C39.7529 29.995 39.5701 30.5246 39.2604 30.9773C38.9508 31.4301 38.5259 31.7889 38.0312 32.0156C36.906 32.5337 35.6498 32.6827 34.4373 32.4418C33.7007 32.2853 33.0064 31.9682 32.4022 31.5125C31.671 30.9484 31.0615 30.2379 30.6115 29.425C30.0115 28.2897 29.0951 27.3594 27.977 26.7506C26.1918 25.8394 23.601 25.7418 22.153 27.6918C20.6638 29.7043 20.545 32.0156 21.8299 34.0569C23.4059 36.5506 27.2355 38.5862 32.2392 37.51C37.8275 36.31 40.081 32.5569 40.9389 30.4275L40.9709 30.345C41.2569 29.5334 41.6068 28.7465 42.017 27.9919C42.1519 27.7449 42.3444 27.5353 42.5777 27.3815C42.8109 27.2277 43.0778 27.1345 43.3549 27.11C43.9087 27.02 44.4644 27.26 44.7826 27.7275C45.0515 28.1125 45.0853 28.6181 44.8693 29.0362C44.7512 29.255 44.5561 29.4218 44.3229 29.5037C43.3986 29.7975 43.3284 28.9656 43.3284 28.9656C43.7389 29.0481 44.0146 28.9187 44.105 28.6718C44.1444 28.5156 44.1235 28.3506 44.0466 28.2093C43.9799 28.1208 43.8899 28.0531 43.787 28.0142C43.6841 27.9753 43.5725 27.9667 43.465 27.9893C42.8835 28.0568 42.6859 28.4212 41.7906 30.6831L41.7586 30.7656C41.1047 32.4013 40.1132 33.8757 38.8509 35.0893C37.0612 36.7691 34.8464 37.9096 32.4546 38.3831C30.1789 38.9081 27.8035 38.7768 25.5986 38.0037C23.7629 37.3789 22.1803 36.1585 21.0946 34.5306C20.4068 33.4683 20.0519 32.2193 20.0767 30.9481C20.1327 29.5708 20.6162 28.2468 21.4582 27.1656C21.8437 26.6484 22.3284 26.216 22.8831 25.8944C23.4377 25.5729 24.0508 25.369 24.6853 25.295C25.9535 25.1486 27.2363 25.3796 28.3776 25.96C29.0781 26.3179 29.708 26.8032 30.2361 27.3919C30.6717 27.876 31.0529 28.4078 31.3727 28.9775C33.0884 31.9775 35.8447 32.0537 37.6761 31.21C38.0232 31.048 38.3216 30.7949 38.5404 30.4769C38.7592 30.1589 38.8906 29.7874 38.921 29.4006C38.9455 29.1632 38.9039 28.9236 38.8011 28.709C38.6984 28.4944 38.5384 28.3133 38.3395 28.1862C37.569 27.7244 36.9782 27.9244 36.6847 28.2625C36.5368 28.4217 36.4501 28.6295 36.4405 28.8482C36.4309 29.0669 36.499 29.2818 36.6324 29.4537C36.7573 29.5975 37.0164 29.56 37.1266 29.5275C37.3887 29.4537 37.5776 28.8806 37.5776 28.8806C37.7173 28.96 37.833 29.0769 37.9118 29.2181C37.9644 29.3155 37.9951 29.4235 38.0016 29.5344C38.0082 29.6453 37.9903 29.7563 37.9495 29.8593C37.9086 29.9624 37.8457 30.0549 37.7653 30.1302C37.685 30.2056 37.5891 30.2618 37.4847 30.295C36.8681 30.5712 36.2484 30.4831 35.8939 30.0275C35.6345 29.6842 35.5052 29.2577 35.5297 28.8257C35.5542 28.3937 35.7309 27.985 36.0275 27.6744C36.2102 27.4693 36.4339 27.306 36.6835 27.1955C36.9332 27.0849 37.2025 27.0296 37.4749 27.0331ZM23.4552 32.1243C23.9128 33.1064 24.6503 33.9262 25.5721 34.4775C26.7026 35.1243 27.857 35.4187 29.561 35.4918C29.9075 35.51 30.2552 35.51 30.6016 35.4918C29.7188 34.9799 28.9187 34.3332 28.2293 33.5744C27.7071 32.9819 27.2453 32.3374 26.8509 31.6506L26.7813 31.5275C26.6152 31.2337 26.3333 30.7306 26.0539 30.6212C25.9707 30.5817 25.88 30.5612 25.7881 30.5612C25.6962 30.5612 25.6055 30.5817 25.5222 30.6212C25.4653 30.6515 25.4151 30.6931 25.3745 30.7438C25.334 30.7944 25.3041 30.8528 25.2866 30.9156C25.2909 31.0931 25.3272 31.2687 25.3942 31.4331C25.7093 32.0153 26.0888 32.559 26.5253 33.0537L27.5807 34.2306C27.1127 34.1583 26.6661 33.9825 26.2724 33.7156C25.544 33.2568 24.963 32.5925 24.6004 31.8037C24.4543 31.4749 24.3961 31.1127 24.4318 30.7537C24.513 30.3662 24.7592 30.035 25.1032 29.8475C25.2959 29.7429 25.5092 29.6831 25.7275 29.6725C25.9457 29.6619 26.1636 29.7008 26.3653 29.7862C26.9469 30.01 27.2989 30.6537 27.5284 31.08C27.5518 31.1187 27.5715 31.16 27.5955 31.195C27.9589 31.8255 28.3845 32.4168 28.8656 32.96C29.8093 33.9908 30.9678 34.7945 32.2564 35.3125L33.8029 35.8393L32.2152 36.1687C31.3259 36.3367 30.4212 36.4046 29.5173 36.3712C27.6712 36.2862 26.4004 35.96 25.1413 35.2506C24.0631 34.6046 23.1995 33.6461 22.6613 32.4981C22.4338 31.9632 22.3294 31.3826 22.3561 30.8006C22.3657 30.1465 22.5474 29.5069 22.8822 28.9481C23.2749 28.3044 24.0742 27.5306 25.633 27.4775C26.2404 27.4941 26.8364 27.6489 27.377 27.9306C28.2662 28.4263 28.993 29.1757 29.4675 30.0862C30.0372 31.1427 30.8709 32.0282 31.8847 32.6535C32.8984 33.2788 34.0565 33.6218 35.2422 33.6481C35.961 33.6481 36.6798 33.5943 37.3906 33.4856C36.786 34.0485 36.0257 34.4091 35.2127 34.5187C33.9064 34.4816 32.6308 34.1081 31.5056 33.4331C30.3533 32.7253 29.397 31.7317 28.7266 30.5456C28.3363 29.7838 27.7361 29.154 26.9992 28.7331C26.5789 28.5115 26.1149 28.3889 25.6416 28.3743C24.705 28.4006 24.0219 28.7506 23.6059 29.4156C23.3816 29.8264 23.2514 30.2834 23.2253 30.7525C23.1992 31.2215 23.2778 31.6905 23.4552 32.1243ZM31.9253 22.9781C32.2342 23.1593 32.5315 23.3606 32.8152 23.5812C33.049 23.7512 33.2546 23.9587 33.4226 24.1956C33.4959 24.2984 33.5468 24.4158 33.572 24.5401C33.5972 24.6645 33.596 24.7928 33.5685 24.9166C33.541 25.0404 33.4879 25.1569 33.4126 25.2582C33.3374 25.3596 33.2418 25.4435 33.1321 25.5043C32.7738 25.0495 32.3852 24.6201 31.969 24.2194C31.4487 23.7232 30.8613 23.3052 30.2244 22.9781H31.9253ZM21.1235 22.9781C20.5297 23.2128 20.0001 23.5889 19.5795 24.075C19.5638 23.693 19.4893 23.3159 19.3586 22.9575L21.1235 22.9781ZM17.2189 24.7187C17.2163 24.4117 17.2928 24.1093 17.4406 23.8415C17.5885 23.5737 17.8027 23.3498 18.0619 23.1918C18.2539 23.7481 18.3001 24.345 18.1955 24.9243C18.0694 25.5837 17.8744 26.2276 17.6139 26.845C17.4718 27.2156 17.3235 27.5775 17.2244 27.9331L17.2189 24.7187ZM18.8989 40.9687C18.4436 40.9687 18.0069 40.7855 17.6844 40.4591C17.3619 40.1327 17.1799 39.6899 17.1782 39.2275V38.345C17.7598 39.3125 18.5272 40.0744 19.7481 40.9656L18.8989 40.9687ZM21.865 40.9687C21.3598 40.6599 20.8744 40.319 20.4115 39.9481C19.0891 38.9035 17.9907 37.5955 17.1838 36.1043V33.8506C18.2595 37.3244 20.9229 39.7156 23.7407 40.9687H21.865ZM37.6441 40.9687C37.2204 40.6953 36.7643 40.4778 36.2866 40.3212C35.185 40.045 34.1758 40.2712 33.0041 40.5069C31.4866 40.8469 29.9302 40.9756 28.3782 40.8894C27.0418 40.7845 25.7283 40.477 24.4816 39.9769C23.2955 39.5055 22.2097 38.8068 21.2835 37.9187C20.443 37.1238 19.7256 36.2045 19.1555 35.1919C18.2829 33.6212 17.8582 32.0831 17.9198 30.6187C17.9567 29.7731 18.1266 28.9394 18.4226 28.1481C18.7418 27.3197 19.1766 26.5422 19.7136 25.8394C20.8486 24.3342 22.5184 23.3397 24.3659 23.0687C24.6923 23.019 25.0213 22.9885 25.3512 22.9775H25.9327C27.1235 23.0069 28.2933 23.3025 29.3579 23.8418C30.1674 24.2687 30.9005 24.8307 31.5266 25.5043C32.1922 26.2169 32.773 27.0065 33.257 27.8568C33.2946 27.9275 33.3352 27.9919 33.3733 28.0569C33.4385 27.6931 33.5589 27.3418 33.7302 27.0156C33.8533 26.7718 33.9949 26.5418 34.1321 26.3156C34.4952 25.7275 34.8558 25.245 34.8035 24.6331C34.7644 24.2781 34.6344 23.9397 34.4263 23.6517C34.2182 23.3637 33.9394 23.1362 33.6176 22.9919H35.0275C35.3191 23.1932 35.5483 23.4746 35.6883 23.8033C35.8284 24.132 35.8734 24.4944 35.8182 24.8481C35.7309 25.5568 35.2164 26.2156 34.8736 26.7775C34.7395 26.9981 34.6115 27.2069 34.5044 27.4212C34.2386 27.9279 34.1252 28.5028 34.1782 29.0743C34.2275 29.4793 34.3149 29.8781 34.4404 30.2656C34.1204 30.1531 33.825 29.98 33.5678 29.7569C33.148 29.3296 32.7907 28.8434 32.5069 28.3131C31.4976 26.5631 30.3056 25.3243 28.9592 24.6243C27.9264 24.1098 26.7901 23.8459 25.6398 23.8537C25.257 23.8537 24.8755 23.8825 24.497 23.9394C22.8806 24.1805 21.4203 25.0519 20.4262 26.3687C19.9434 27.0087 19.5519 27.7146 19.2632 28.4656C18.9989 29.17 18.8469 29.9126 18.8127 30.6656C18.7573 31.9625 19.1352 33.3419 19.9327 34.7656C21.0254 36.7455 22.7443 38.2928 24.8109 39.1569C27.3696 40.1631 29.9401 40.2775 33.0016 39.5919C34.4293 39.2743 35.6822 39.1506 36.9936 39.5919C37.8429 39.9487 38.6478 40.4069 39.3893 40.9568L37.6441 40.9687ZM40.8626 40.81C39.6736 39.7393 38.4238 38.9625 37.4059 38.6775L36.3506 38.3837C36.9127 38.1497 37.4537 37.8661 37.9672 37.5362C37.9672 37.5362 38.8392 37.6212 39.2841 37.61C39.0417 37.7995 38.7872 37.9723 38.5222 38.1275C39.7099 38.7036 40.8041 39.4602 41.7672 40.3712C41.4926 40.5691 41.1866 40.7175 40.8626 40.81ZM44.2355 38.0306C44.0666 37.9449 43.9043 37.8465 43.7499 37.7362C43.3192 37.9375 42.8699 38.0937 42.4072 38.2006C42.7192 38.44 43.0509 38.6525 43.3979 38.8362L42.7672 39.4925C42.1346 39.1248 41.5429 38.689 41.0022 38.1925C40.7922 37.9941 40.5646 37.8158 40.3222 37.66C40.3222 37.66 40.8133 37.6037 41.3315 37.5068C42.0824 37.354 42.8125 37.1101 43.5062 36.7806L43.7389 36.6569L44.0293 36.8831C44.2898 37.0919 44.5852 37.2513 44.9013 37.3537C44.6779 37.6037 44.4275 37.8394 44.2355 38.0306ZM47.0792 34.3681C46.9602 34.9529 46.6822 35.492 46.2767 35.9243H46.2595L46.1549 36.0569L45.7389 36.4894C45.3711 36.4257 45.0182 36.293 44.6982 36.0981C45.017 35.8523 45.3049 35.5676 45.5555 35.2506L45.8232 34.8037C45.8232 34.8037 46.6958 34.6537 47.1087 34.2156C47.1142 34.1981 47.0706 34.3681 47.0792 34.3681ZM47.161 25.11C46.5668 24.5131 45.8047 24.1184 44.9801 23.9806C43.9424 23.7873 42.8781 23.7941 41.8429 24.0006C41.4419 24.0763 41.0514 24.2007 40.6798 24.3712L40.4589 24.4837L40.2435 24.3687C39.5263 23.9368 38.6822 23.7753 37.8595 23.9125C37.9272 24.2562 37.9481 24.6075 37.921 24.9562C38.608 25.0283 39.2761 25.2278 39.8921 25.545C40.1395 25.6937 40.3764 25.86 40.601 26.0418C41.008 25.6433 41.5086 25.3569 42.0552 25.21C42.6821 25.0134 43.342 24.9492 43.9942 25.0212C44.7228 25.0868 45.4232 25.3388 46.0299 25.7537C46.3697 26.006 46.6476 26.3344 46.8422 26.7135C47.0368 27.0925 47.1427 27.512 47.1518 27.9393C47.2086 28.6069 47.0965 29.2781 46.8262 29.8893C46.3352 30.9418 45.1776 31.6744 43.7739 31.8419C43.4271 32.7339 42.9289 33.5572 42.3019 34.2743C42.2324 34.3681 41.9124 34.7831 41.4767 35.2656C41.5986 35.2306 41.7266 35.195 41.8576 35.1481C42.9584 34.8178 43.8992 34.0841 44.4976 33.0894L44.6022 32.9037L44.8146 32.8744C45.7085 32.709 46.534 32.2781 47.1869 31.6362V32.7925C47.0111 32.9207 46.8275 33.0376 46.6373 33.1425C46.1684 33.4022 45.6652 33.5922 45.1432 33.7068C44.4194 34.7985 43.3473 35.6035 42.1075 35.9862C41.529 36.1787 40.9296 36.2962 40.3222 36.3362L39.1967 36.41C39.8146 35.9248 40.3679 35.3603 40.8429 34.7306C41.2577 34.1966 41.6459 33.6417 42.0059 33.0681C42.3435 32.5517 42.6288 32.0021 42.8576 31.4275L43.1481 30.6712C43.3284 30.7312 43.5118 30.7794 43.6976 30.8156C44.1696 30.8596 44.6437 30.7586 45.0584 30.5257C45.4732 30.2928 45.8095 29.9387 46.0238 29.5093C46.2308 29.0328 46.3138 28.5103 46.265 27.9919C46.1893 26.7687 45.4336 26.1006 43.8755 25.8919C43.0232 25.7775 41.5229 26.0744 41.0404 26.9125L40.7493 27.4331L40.3512 26.9894C40.0916 26.7227 39.7987 26.492 39.4798 26.3031C38.8915 26.0069 38.249 25.8375 37.5924 25.8062C37.3336 25.8038 37.075 25.8234 36.8195 25.865L36.9672 25.2943C37.0674 24.76 37.0098 24.2074 36.8016 23.7062L36.577 23.2656C37.1036 23.0668 37.6614 22.9672 38.2232 22.9718C39.0122 22.9506 39.7943 23.1273 40.5001 23.4862C41.2597 23.1913 42.0602 23.0196 42.8724 22.9775H43.977C44.3666 23.0025 44.7549 23.0487 45.1401 23.1156C45.7569 23.2265 46.3483 23.452 46.8847 23.7806C47.0619 24.0606 47.1555 24.3862 47.1555 24.7181L47.161 25.11Z" fill="#E24353"/>
</g>
<defs>
<clipPath id="clip0_28_31">
<rect width="64" height="64" fill="white" transform="translate(0.224365 0.015625)"/>
</clipPath>
</defs>
</svg>
