<svg width="18" height="18" viewBox="0 0 18 18" fill="none" xmlns="http://www.w3.org/2000/svg">
<g clip-path="url(#clip0_1_212)">
<path d="M0.728516 18V14.472C0.728516 12.52 0.968516 10.944 1.44852 9.74401C1.92852 8.52801 2.68852 7.62401 3.72852 7.03201C4.78452 6.42402 6.17652 6.07201 7.90452 5.97601V0.864014H10.0165V5.97601C11.6165 6.07201 12.9445 6.41601 14.0005 7.00801C15.0725 7.58401 15.8725 8.47201 16.4005 9.67201C16.9285 10.856 17.1925 12.432 17.1925 14.4V18H15.0565V14.448C15.0565 12.864 14.8645 11.6 14.4805 10.656C14.1125 9.71201 13.5525 9.02401 12.8005 8.59201C12.0645 8.14401 11.1365 7.88001 10.0165 7.80001V14.064H7.90452V7.80001C6.70452 7.88001 5.72852 8.14401 4.97652 8.59201C4.24052 9.04002 3.70452 9.73601 3.36852 10.68C3.03252 11.624 2.86452 12.872 2.86452 14.424V18H0.728516Z" fill="black" fill-opacity="0.87"/>
</g>
<defs>
<clipPath id="clip0_1_212">
<rect width="17" height="18" fill="white" transform="translate(0.3125)"/>
</clipPath>
</defs>
</svg>
