<svg width="65" height="81" viewBox="0 0 65 81" fill="none" xmlns="http://www.w3.org/2000/svg">
<g clip-path="url(#clip0_28_87)">
<path d="M32.2244 72.0156C49.8975 72.0156 64.2244 57.6887 64.2244 40.0156C64.2244 22.3425 49.8975 8.01562 32.2244 8.01562C14.5513 8.01562 0.224365 22.3425 0.224365 40.0156C0.224365 57.6887 14.5513 72.0156 32.2244 72.0156Z" fill="#E7F4F9"/>
<path d="M29.5577 45.3489V44.0156H20.2377L20.2244 49.3489C20.2244 50.8289 21.411 52.0156 22.891 52.0156H41.5577C43.0377 52.0156 44.2244 50.8289 44.2244 49.3489V44.0156H34.891V45.3489H29.5577ZM42.891 33.3489H37.5444V30.6823L34.8777 28.0156H29.5444L26.8777 30.6823V33.3489H21.5577C20.091 33.3489 18.891 34.5489 18.891 36.0156V40.0156C18.891 41.4956 20.0777 42.6823 21.5577 42.6823H29.5577V40.0156H34.891V42.6823H42.891C44.3577 42.6823 45.5577 41.4823 45.5577 40.0156V36.0156C45.5577 34.5489 44.3577 33.3489 42.891 33.3489ZM34.891 33.3489H29.5577V30.6823H34.891V33.3489Z" fill="#0090C1"/>
</g>
<defs>
<clipPath id="clip0_28_87">
<rect width="64" height="80" fill="white" transform="translate(0.224365 0.015625)"/>
</clipPath>
</defs>
</svg>
