<svg width="56" height="57" viewBox="0 0 56 57" fill="none" xmlns="http://www.w3.org/2000/svg">
<rect y="0.5" width="56" height="56" rx="28" fill="#FDF6E7"/>
<g clip-path="url(#clip0_1_71)">
<path d="M29.8 39.1665L30.56 41.8332H18.6667C17.1867 41.8332 16 40.6332 16 39.1665L16.0133 20.4998C16.0133 19.0332 17.1867 17.8332 18.6667 17.8332H20V15.1665H22.6667V17.8332H33.3333V15.1665H36V17.8332H37.3333C38.8 17.8332 40 19.0332 40 20.4998V32.3932L37.3333 31.6332V25.8332H18.6667V39.1665H29.8ZM40.9467 40.8865L36.6533 36.5932L40 35.1665L30.6667 32.4998L33.3333 41.8332L34.7733 38.4865L39.0667 42.7798L40.9467 40.8865ZM28 35.1665V28.4998H21.3333V35.1665H28Z" fill="#EFB42E"/>
</g>
<defs>
<clipPath id="clip0_1_71">
<rect width="32" height="32" fill="white" transform="translate(12 12.5)"/>
</clipPath>
</defs>
</svg>
