<svg width="57" height="41" viewBox="0 0 57 41" fill="none" xmlns="http://www.w3.org/2000/svg">
<g clip-path="url(#clip0_1_38)">
<path d="M50.77 0.5H5.494C4.03721 0.501589 2.64057 1.08107 1.61056 2.11126C0.580547 3.14146 0.00132348 4.53821 0 5.995L0 35.005C0.00132391 36.462 0.580685 37.8589 1.61091 38.8891C2.64114 39.9193 4.03804 40.4987 5.495 40.5H22.527C22.8185 40.5 23.098 40.3842 23.3041 40.1781C23.5102 39.972 23.626 39.6925 23.626 39.401C23.626 39.1095 23.5102 38.83 23.3041 38.6239C23.098 38.4178 22.8185 38.302 22.527 38.302H5.495C4.62082 38.3012 3.78268 37.9536 3.16455 37.3355C2.54641 36.7173 2.19879 35.8792 2.198 35.005V21.6H26.08C26.168 22.0455 26.3459 22.4684 26.603 22.8427C26.86 23.217 27.1908 23.5349 27.575 23.777C27.831 23.94 28.104 24.063 28.385 24.15L26.45 27.477C26.3405 27.6652 26.2894 27.8817 26.3032 28.099C26.3169 28.3162 26.3949 28.5245 26.5272 28.6975C26.6595 28.8704 26.8401 29.0001 27.0463 29.0701C27.2524 29.1402 27.4747 29.1475 27.685 29.091L30.316 28.385L31.02 31.017C31.0761 31.2271 31.1934 31.4159 31.3569 31.5594C31.5204 31.7028 31.7227 31.7946 31.9384 31.8229C32.154 31.8513 32.3733 31.8151 32.5683 31.7188C32.7633 31.6225 32.9254 31.4705 33.034 31.282L38.044 22.604L44.321 33.764C44.4282 33.9542 44.5896 34.1082 44.7846 34.2063C44.9797 34.3044 45.1996 34.3422 45.4162 34.3148C45.6328 34.2875 45.8363 34.1962 46.0009 34.0527C46.1654 33.9092 46.2835 33.7199 46.34 33.509L47.044 30.877L49.676 31.584C49.8853 31.64 50.1064 31.6329 50.3117 31.5636C50.5169 31.4943 50.6971 31.3659 50.8296 31.1945C50.9621 31.0231 51.041 30.8164 51.0564 30.6003C51.0718 30.3842 51.0229 30.1684 50.916 29.98L47.685 24.285C48.4224 24.3524 49.1612 24.1734 49.786 23.776C50.1699 23.534 50.5005 23.2162 50.7574 22.842C51.0142 22.4679 51.1921 22.0453 51.28 21.6H54.065V35.006C54.0642 35.8802 53.7166 36.7183 53.0985 37.3365C52.4803 37.9546 51.6422 38.3022 50.768 38.303H39.78V32.369C39.78 32.0775 39.6642 31.798 39.4581 31.5919C39.252 31.3858 38.9725 31.27 38.681 31.27C38.3895 31.27 38.11 31.3858 37.9039 31.5919C37.6978 31.798 37.582 32.0775 37.582 32.369V38.303H31.872C31.5805 38.303 31.301 38.4188 31.0949 38.6249C30.8888 38.831 30.773 39.1105 30.773 39.402C30.773 39.6935 30.8888 39.973 31.0949 40.1791C31.301 40.3852 31.5805 40.501 31.872 40.501H50.769C52.226 40.4997 53.6229 39.9203 54.6531 38.8901C55.6833 37.8599 56.2627 36.463 56.264 35.006V5.995C56.2627 4.53804 55.6833 3.14114 54.6531 2.11091C53.6229 1.08068 52.227 0.501324 50.77 0.5ZM28.751 21.92C28.585 21.8169 28.4484 21.6727 28.3543 21.5014C28.2602 21.3301 28.2119 21.1374 28.214 20.942V13.242C28.214 12.838 28.409 12.482 28.751 12.264C28.9151 12.1577 29.1038 12.0955 29.299 12.0834C29.4941 12.0713 29.6891 12.1098 29.865 12.195L35.257 14.739C35.1204 15.1098 35.0506 15.5019 35.051 15.897V18.247C35.051 18.667 35.129 19.068 35.271 19.439L29.865 21.989C29.6889 22.074 29.494 22.1122 29.2988 22.1C29.1037 22.0877 28.915 22.0264 28.751 21.92ZM32.458 27.883L32.155 26.753C32.0795 26.4715 31.8953 26.2315 31.6429 26.0857C31.3905 25.94 31.0905 25.9006 30.809 25.976L29.69 26.276L31.112 23.831L36.177 21.441L32.458 27.883ZM30.804 10.207C30.293 9.96439 29.7287 9.85556 29.164 9.89072C28.5994 9.92588 28.053 10.1039 27.576 10.408C27.0972 10.7096 26.7029 11.1278 26.43 11.6235C26.1571 12.1192 26.0147 12.6762 26.016 13.242V19.402H2.199V5.994C2.19979 5.11982 2.54741 4.28168 3.16555 3.66355C3.78368 3.04541 4.62182 2.69779 5.496 2.697H37.583V12.111C37.583 12.292 37.628 12.463 37.706 12.614C37.3591 12.6884 37.0262 12.8177 36.72 12.997L30.804 10.207ZM38.972 19.405H38.408C38.101 19.4045 37.8068 19.2823 37.5898 19.0652C37.3727 18.8482 37.2505 18.554 37.25 18.247V15.897C37.25 15.258 37.77 14.739 38.408 14.739H38.972C39.61 14.739 40.13 15.258 40.13 15.896V18.247C40.1295 18.554 40.0073 18.8482 39.7902 19.0652C39.5732 19.2823 39.279 19.4045 38.972 19.405ZM47.709 28.779L46.553 28.469C46.2713 28.3935 45.9712 28.433 45.7187 28.5787C45.4661 28.7244 45.2817 28.9644 45.206 29.246L44.915 30.335L39.925 21.464C40.1652 21.3929 40.3967 21.2949 40.615 21.172L44.408 22.962L47.709 28.779ZM48.61 21.919C48.446 22.0255 48.2573 22.0878 48.0622 22.1001C47.867 22.1124 47.672 22.0741 47.496 21.989L42.106 19.445C42.248 19.073 42.328 18.669 42.328 18.247V15.897C42.328 15.487 42.254 15.095 42.119 14.732L47.496 12.195C47.672 12.1099 47.867 12.0716 48.0622 12.0839C48.2573 12.0962 48.446 12.1585 48.61 12.265C48.952 12.481 49.148 12.838 49.148 13.242V20.942C49.148 21.346 48.952 21.702 48.61 21.919ZM54.066 19.401H51.346V13.242C51.3474 12.6762 51.2051 12.1194 50.9324 11.6237C50.6598 11.128 50.2656 10.7097 49.787 10.408C49.3099 10.104 48.7634 9.92621 48.1988 9.89123C47.6342 9.85625 47.07 9.96525 46.559 10.208L40.653 12.994C40.3443 12.8141 40.0087 12.6851 39.659 12.612C39.736 12.462 39.78 12.292 39.78 12.112V2.698H50.77C51.644 2.69906 52.4819 3.04679 53.0998 3.6649C53.7177 4.28301 54.0652 5.121 54.066 5.995V19.401Z" fill="black"/>
</g>
<defs>
<clipPath id="clip0_1_38">
<rect width="57" height="40" fill="white" transform="translate(0 0.5)"/>
</clipPath>
</defs>
</svg>
