<svg width="65" height="65" viewBox="0 0 65 65" fill="none" xmlns="http://www.w3.org/2000/svg">
<g clip-path="url(#clip0_28_43)">
<path d="M32.2244 64.0156C49.8975 64.0156 64.2244 49.6887 64.2244 32.0156C64.2244 14.3425 49.8975 0.015625 32.2244 0.015625C14.5513 0.015625 0.224365 14.3425 0.224365 32.0156C0.224365 49.6887 14.5513 64.0156 32.2244 64.0156Z" fill="#FDF6E7"/>
<path d="M32.2244 18.6824C24.8644 18.6824 18.891 24.6558 18.891 32.0158C18.891 39.3758 24.8644 45.3491 32.2244 45.3491C39.5844 45.3491 45.5577 39.3758 45.5577 32.0158C45.5577 24.6558 39.5844 18.6824 32.2244 18.6824ZM29.5577 38.6824L22.891 32.0158L24.771 30.1358L29.5577 34.9091L39.6777 24.7891L41.5577 26.6824L29.5577 38.6824Z" fill="#ECA400"/>
</g>
<defs>
<clipPath id="clip0_28_43">
<rect width="64" height="64" fill="white" transform="translate(0.224365 0.015625)"/>
</clipPath>
</defs>
</svg>
