<svg width="65" height="81" viewBox="0 0 65 81" fill="none" xmlns="http://www.w3.org/2000/svg">
<g clip-path="url(#clip0_28_64)">
<path d="M32.2244 72.0156C49.8975 72.0156 64.2244 57.6887 64.2244 40.0156C64.2244 22.3425 49.8975 8.01562 32.2244 8.01562C14.5513 8.01562 0.224365 22.3425 0.224365 40.0156C0.224365 57.6887 14.5513 72.0156 32.2244 72.0156Z" fill="#FDF6E7"/>
<path d="M23.5528 43.6626C24.2568 43.6626 24.8648 43.0866 24.8648 42.3506C24.8648 41.6466 24.2888 41.0386 23.5528 41.0386H18.3368C17.6328 41.0386 17.0248 41.6146 17.0248 42.3506C17.0248 43.0546 17.6008 43.6626 18.3368 43.6626H23.5528Z" fill="#ECA400"/>
<path d="M24.6092 35.9844H19.3612C18.6572 35.9844 18.0492 36.5603 18.0492 37.2963C18.0492 38.0323 18.6252 38.6083 19.3612 38.6083H24.6092C25.3132 38.6083 25.9212 38.0323 25.9212 37.2963C25.9212 36.5603 25.3132 35.9844 24.6092 35.9844Z" fill="#ECA400"/>
<path d="M24.61 46.1265H19.362C18.658 46.1265 18.05 46.7025 18.05 47.4385C18.05 48.1745 18.626 48.7505 19.362 48.7505H24.61C25.314 48.7505 25.922 48.1745 25.922 47.4385C25.922 46.7025 25.314 46.1265 24.61 46.1265Z" fill="#ECA400"/>
<path d="M37.088 30.7997V28.6557H38.592C39.296 28.6557 39.904 28.0797 39.904 27.3437C39.904 26.6077 39.328 26.0317 38.592 26.0317H32.992C32.288 26.0317 31.68 26.6077 31.68 27.3437C31.68 28.0797 32.256 28.6557 32.992 28.6557H34.496V30.7997C31.968 31.0877 29.6 32.1757 27.776 33.9357C27.264 34.4477 27.232 35.2477 27.744 35.7597C28.256 36.2717 29.056 36.3037 29.568 35.7917C31.232 34.1917 33.472 33.2957 35.808 33.2957C40.8 33.2957 44.864 37.3597 44.864 42.3197C44.864 47.3117 40.8 51.3757 35.808 51.3757C33.472 51.3757 31.264 50.4797 29.568 48.8797C29.056 48.3997 28.224 48.3997 27.744 48.9117C27.264 49.4237 27.264 50.2557 27.776 50.7357C29.952 52.8157 32.8 53.9677 35.808 53.9677C42.24 53.9677 47.456 48.7517 47.456 42.3197C47.424 36.3677 42.88 31.4397 37.088 30.7997Z" fill="#ECA400"/>
<path d="M35.7762 35.9844C35.0722 35.9844 34.4642 36.5603 34.4642 37.2963V42.3523C34.4642 43.0563 35.0402 43.6644 35.7762 43.6644H40.0962C40.8002 43.6644 41.4082 43.0883 41.4082 42.3523C41.4082 41.6483 40.8322 41.0404 40.0962 41.0404H37.0882V37.2963C37.0882 36.5603 36.4802 35.9844 35.7762 35.9844Z" fill="#ECA400"/>
</g>
<defs>
<clipPath id="clip0_28_64">
<rect width="64" height="80" fill="white" transform="translate(0.224365 0.015625)"/>
</clipPath>
</defs>
</svg>
