<svg width="65" height="81" viewBox="0 0 65 81" fill="none" xmlns="http://www.w3.org/2000/svg">
<g clip-path="url(#clip0_28_56)">
<path d="M32.2244 72.0156C49.8975 72.0156 64.2244 57.6887 64.2244 40.0156C64.2244 22.3425 49.8975 8.01562 32.2244 8.01562C14.5513 8.01562 0.224396 22.3425 0.224396 40.0156C0.224396 57.6887 14.5513 72.0156 32.2244 72.0156Z" fill="#E0F3ED"/>
<path d="M42.8911 48.0156C44.3577 48.0156 45.5444 46.8156 45.5444 45.3489L45.5577 30.6823C45.5577 29.2156 44.3577 28.0156 42.8911 28.0156H21.5577C20.0911 28.0156 18.8911 29.2156 18.8911 30.6823V45.3489C18.8911 46.8156 20.0911 48.0156 21.5577 48.0156H16.2244C16.2244 49.4823 17.4244 50.6823 18.8911 50.6823H45.5577C47.0244 50.6823 48.2244 49.4823 48.2244 48.0156H42.8911ZM22.8911 30.6823H41.5577C42.2911 30.6823 42.8911 31.2823 42.8911 32.0156V44.0156C42.8911 44.7489 42.2911 45.3489 41.5577 45.3489H22.8911C22.1577 45.3489 21.5577 44.7489 21.5577 44.0156V32.0156C21.5577 31.2823 22.1577 30.6823 22.8911 30.6823ZM32.2244 49.3489C31.4911 49.3489 30.8911 48.7489 30.8911 48.0156C30.8911 47.2823 31.4911 46.6823 32.2244 46.6823C32.9577 46.6823 33.5577 47.2823 33.5577 48.0156C33.5577 48.7489 32.9577 49.3489 32.2244 49.3489Z" fill="#058D66"/>
</g>
<defs>
<clipPath id="clip0_28_56">
<rect width="64" height="80" fill="white" transform="translate(0.224396 0.015625)"/>
</clipPath>
</defs>
</svg>
