<svg width="65" height="65" viewBox="0 0 65 65" fill="none" xmlns="http://www.w3.org/2000/svg">
<g clip-path="url(#clip0_28_19)">
<path d="M32.2244 64.0156C49.8975 64.0156 64.2244 49.6887 64.2244 32.0156C64.2244 14.3425 49.8975 0.015625 32.2244 0.015625C14.5513 0.015625 0.224396 14.3425 0.224396 32.0156C0.224396 49.6887 14.5513 64.0156 32.2244 64.0156Z" fill="#E0F3ED"/>
<path d="M41.5577 41.3489H22.8911V22.6823H32.2244V20.0156H22.8911C21.4111 20.0156 20.2244 21.2156 20.2244 22.6823V41.3489C20.2244 42.8156 21.4111 44.0156 22.8911 44.0156H41.5577C43.0244 44.0156 44.2244 42.8156 44.2244 41.3489V32.0156H41.5577V41.3489ZM34.8911 20.0156V22.6823H39.6777L26.5711 35.7889L28.4511 37.6689L41.5577 24.5623V29.3489H44.2244V20.0156H34.8911Z" fill="#099A71"/>
</g>
<defs>
<clipPath id="clip0_28_19">
<rect width="64" height="64" fill="white" transform="translate(0.224396 0.015625)"/>
</clipPath>
</defs>
</svg>
