<svg width="82" height="83" viewBox="0 0 82 83" fill="none" xmlns="http://www.w3.org/2000/svg">
<path d="M50.1366 42.6982H8.11694V74.3415H50.1366V42.6982Z" fill="#F1F9F7"/>
<path d="M8.9839 73.2284V73.4784H9.2339H49.0197H49.2697V73.2284V43.8567V43.6067H49.0197H9.2339H8.9839V43.8567V73.2284ZM50.1366 75.25H8.11695C7.63345 75.25 7.25 74.8662 7.25 74.3642V42.7209C7.25 42.219 7.63345 41.8351 8.11695 41.8351H50.1366C50.6201 41.8351 51.0036 42.219 51.0036 42.7209V74.3642C51.0036 74.8467 50.6169 75.25 50.1366 75.25Z" fill="#343836" stroke="white" stroke-width="0.5"/>
<path d="M73.883 42.6982H50.1367V74.3415H73.883V42.6982Z" fill="#F1F9F7"/>
<path d="M51.0036 73.2284V73.4784H51.2536H72.7661H73.0161V73.2284V43.8567V43.6067H72.7661H51.2536H51.0036V43.8567V73.2284ZM73.883 75.25H50.1367C49.6532 75.25 49.2697 74.8662 49.2697 74.3642V42.7209C49.2697 42.219 49.6532 41.8351 50.1367 41.8351H73.883C74.3665 41.8351 74.75 42.219 74.75 42.7209V74.3642C74.75 74.8467 74.3633 75.25 73.883 75.25Z" fill="#343836" stroke="white" stroke-width="0.5"/>
<path d="M8.9839 41.5625V41.8125H9.2339H49.0197H49.2697V41.5625V34.6796V34.4296H49.0197H9.2339H8.9839V34.6796V41.5625ZM50.1366 43.584H8.11695C7.63345 43.584 7.25 43.2002 7.25 42.6983V33.5438C7.25 33.0419 7.63345 32.658 8.11695 32.658H50.1366C50.6201 32.658 51.0036 33.0419 51.0036 33.5438V42.6983C51.0036 43.2002 50.6201 43.584 50.1366 43.584Z" fill="#343836" stroke="white" stroke-width="0.5"/>
<path d="M24.0309 42.6653V33.7186H30.7378V42.7262L24.0309 42.6653Z" fill="#099A71" stroke="#343836"/>
<path d="M51.0036 41.5625V41.8125H51.2536H72.7661H73.0161V41.5625V34.6796V34.4296H72.7661H51.2536H51.0036V34.6796V41.5625ZM73.883 43.584H50.1367C49.6532 43.584 49.2697 43.2002 49.2697 42.6983V33.5438C49.2697 33.0419 49.6532 32.658 50.1367 32.658H73.883C74.3665 32.658 74.75 33.0419 74.75 33.5438V42.6983C74.75 43.2002 74.3665 43.584 73.883 43.584Z" fill="#343836" stroke="white" stroke-width="0.5"/>
<path d="M38.3192 34.4294C38.1831 34.4294 38.0709 34.4092 37.9858 34.3659L37.9745 34.3608C36.8607 31.4815 40.6015 27.6058 42.5682 25.6811C44.553 23.7386 46.7259 22.4669 48.7928 22.1146C56.2699 20.8889 55.1587 30.5917 49.6768 32.893C47.2805 33.8989 44.1712 34.4521 40.5531 34.4521C40.1229 34.4521 39.7749 34.1377 39.7049 33.7288L39.5959 33.091L40.1649 32.7604C40.2813 32.6928 40.4163 32.6578 40.5531 32.6578C44.3306 32.6578 47.1647 32.0636 49.1843 31.1772C51.4142 29.8437 52.2453 28.0579 52.5178 26.6013C52.8086 25.0473 51.4718 23.7986 49.8908 23.7986C49.6291 23.7986 49.3693 23.8229 49.0897 23.8703C47.6754 24.108 46.0031 25.0081 44.3692 26.4568C42.2448 28.3404 40.7181 30.693 39.4214 33.1924L39.4816 33.1574L39.2342 33.6607C39.2103 33.7093 39.1909 33.7591 39.177 33.7952L39.17 33.8131C39.1532 33.8558 39.1444 33.8738 39.1377 33.884L39.1262 33.9016L39.1177 33.921C38.982 34.2314 38.6527 34.4294 38.3192 34.4294Z" fill="#343836"/>
<path d="M37.9858 34.3659C38.0709 34.4092 38.1831 34.4294 38.3192 34.4294C38.6527 34.4294 38.982 34.2314 39.1177 33.921L39.1262 33.9016L39.1377 33.884C39.1444 33.8738 39.1532 33.8558 39.17 33.8131C39.1721 33.8076 39.1745 33.8016 39.177 33.7952C39.1909 33.7591 39.2103 33.7093 39.2342 33.6607L39.4816 33.1574L39.4214 33.1924C40.7181 30.693 42.2448 28.3404 44.3692 26.4568C46.0031 25.0081 47.6754 24.108 49.0897 23.8703C49.3693 23.8229 49.6291 23.7986 49.8908 23.7986C51.4718 23.7986 52.8086 25.0473 52.5178 26.6013C52.2453 28.0579 51.4142 29.8437 49.1843 31.1772C47.1647 32.0636 44.3306 32.6578 40.5531 32.6578C40.4163 32.6578 40.2813 32.6928 40.1649 32.7604L39.5959 33.091L39.7049 33.7288C39.7749 34.1377 40.1229 34.4521 40.5531 34.4521C44.1712 34.4521 47.2805 33.8989 49.6768 32.893C55.1587 30.5917 56.2699 20.8889 48.7928 22.1146C46.7259 22.4669 44.553 23.7386 42.5682 25.6811C40.6015 27.6058 36.8607 31.4815 37.9745 34.3608M37.9858 34.3659L37.9745 34.3608M37.9858 34.3659C38.0541 34.3423 37.9745 34.3608 37.9745 34.3608" stroke="white" stroke-width="0.5"/>
<path d="M37.0982 33.903L37.0951 33.8956L37.0916 33.8883C37.0781 33.8608 37.0677 33.8343 37.0538 33.7985C37.0507 33.7907 37.0475 33.7824 37.044 33.7736C37.0273 33.731 37.0025 33.6694 36.9646 33.6115L36.6162 33.0801L36.5091 33.7064C36.4397 34.1121 36.0719 34.4297 35.6609 34.4297C32.0428 34.4297 28.9335 33.8765 26.5373 32.8706C24.1402 31.8644 22.4758 30.4142 21.7052 28.6295C20.9598 26.8968 21.2393 25.0495 22.4639 23.7185L22.4651 23.7172C23.7215 22.3313 25.421 21.7643 27.4213 22.0921C29.4882 22.4445 31.661 23.7162 33.6459 25.6587C35.6285 27.599 37.409 30.195 38.6929 33.1661C38.8868 33.6141 38.6898 34.1446 38.2428 34.3369L38.221 34.3463L38.2013 34.3596C38.1281 34.4092 38.0314 34.4297 37.8948 34.4297C37.5637 34.4297 37.2353 34.2342 37.0982 33.903ZM31.867 26.4485C30.2328 25.0023 28.5605 24.1083 27.1467 23.8706C26.8664 23.8231 26.5844 23.7989 26.3456 23.7989C25.3166 23.7989 24.4228 24.1905 23.749 24.9244C22.9826 25.7543 22.8424 26.8379 23.3007 27.9172L23.3017 27.9194C23.8148 29.0965 25.0352 30.281 27.0518 31.1689C29.0713 32.0581 31.9055 32.6581 35.6833 32.6581C35.82 32.6581 35.955 32.6931 36.0714 32.7607L36.8123 33.1912L36.4192 32.4298C35.1212 29.9165 33.5053 27.8982 31.867 26.4485Z" fill="#343836" stroke="white" stroke-width="0.5"/>
<path d="M64.9179 42.7668V74.3219H58.2109V42.7668H64.9179Z" fill="#099A71" stroke="#343836"/>
<path d="M32.6141 42.7668V74.5H25.9072V42.7668H32.6141Z" fill="#099A71" stroke="#343836"/>
<path d="M66.2175 33.5V42.5H59.5105V33.5H66.2175Z" fill="#099A71" stroke="#343836"/>
<path d="M50.7 42.68L7.5 42.5V47.5L50.7 44.68V42.68Z" fill="#343836"/>
<path d="M25.6705 9.22685L28.3065 15.2469C28.3065 15.2468 28.3065 15.247 28.3065 15.2469C28.511 15.72 28.3026 16.2808 27.8507 16.4836C27.7022 16.5482 27.599 16.5802 27.4847 16.5802C27.1418 16.5802 26.8093 16.3789 26.6394 16.0162L24.0047 9.9997C24.0047 9.99957 24.0047 9.99982 24.0047 9.9997C23.8 9.52625 24.0089 8.96451 24.4613 8.76209C24.9204 8.55671 25.47 8.76349 25.6705 9.22685Z" fill="#343836"/>
<path d="M28.3065 15.2469L25.6705 9.22685C25.47 8.76349 24.9204 8.55671 24.4613 8.76209C24.0089 8.96451 23.8 9.52625 24.0047 9.9997M28.3065 15.2469C28.3065 15.247 28.3065 15.2468 28.3065 15.2469ZM28.3065 15.2469C28.511 15.72 28.3026 16.2808 27.8507 16.4836C27.7022 16.5482 27.599 16.5802 27.4847 16.5802C27.1418 16.5802 26.8093 16.3789 26.6394 16.0162L24.0047 9.9997M24.0047 9.9997C24.0047 9.99957 24.0047 9.99982 24.0047 9.9997Z" stroke="white" stroke-width="0.4"/>
<path d="M8.05831 25.7826L8.05702 25.7818C7.61948 25.5409 7.44977 24.9575 7.69028 24.506C7.92821 24.0593 8.4975 23.8917 8.93568 24.1326C8.93548 24.1324 8.93589 24.1327 8.93568 24.1326L14.6091 27.3128L14.6104 27.3135C15.048 27.5545 15.2177 28.1373 14.9772 28.5888L14.9763 28.5904C14.8121 28.9058 14.5037 29.0734 14.1708 29.0734C14.0284 29.0734 13.8817 29.0377 13.7287 28.9605L8.05831 25.7826Z" fill="#343836"/>
<path d="M8.93568 24.1326C8.4975 23.8917 7.92821 24.0593 7.69028 24.506C7.44977 24.9575 7.61948 25.5409 8.05702 25.7818L8.05831 25.7826L13.7287 28.9605C13.8817 29.0377 14.0284 29.0734 14.1708 29.0734C14.5037 29.0734 14.8121 28.9058 14.9763 28.5904L14.9772 28.5888C15.2177 28.1373 15.048 27.5545 14.6104 27.3135L14.6091 27.3128L8.93568 24.1326ZM8.93568 24.1326C8.93589 24.1327 8.93548 24.1324 8.93568 24.1326Z" stroke="white" stroke-width="0.4"/>
<path d="M63.0553 26.9908L63.0528 26.9923C62.9124 27.0815 62.7506 27.1197 62.5793 27.1197C62.2752 27.1197 61.9795 26.9568 61.7892 26.6699C61.5324 26.2163 61.6637 25.6579 62.1046 25.3769L67.6418 21.9712C68.0832 21.7103 68.6299 21.8387 68.9079 22.2881C69.1667 22.7422 69.0357 23.3027 68.5941 23.5842L63.0553 26.9908Z" fill="#343836" stroke="white" stroke-width="0.4"/>
<path d="M48.6858 15.5796L48.6768 15.5753C48.2095 15.3662 47.977 14.8192 48.1755 14.3605L48.1772 14.3565L50.656 8.27093C50.8603 7.80137 51.3925 7.58194 51.8451 7.764C52.3103 7.97414 52.5413 8.51971 52.3433 8.97745L52.3416 8.98143L49.8624 15.068C49.8623 15.0682 49.8624 15.0678 49.8624 15.068C49.7132 15.4277 49.382 15.6488 49.0196 15.6488C48.9046 15.6488 48.7824 15.6287 48.6858 15.5796Z" fill="#343836"/>
<path d="M49.8624 15.068L52.3416 8.98143L52.3433 8.97745C52.5413 8.51971 52.3103 7.97414 51.8451 7.764C51.3925 7.58194 50.8603 7.80137 50.656 8.27093L48.1772 14.3565L48.1755 14.3605C47.977 14.8192 48.2095 15.3662 48.6768 15.5753L48.6858 15.5796C48.7824 15.6287 48.9046 15.6488 49.0196 15.6488C49.382 15.6488 49.7132 15.4277 49.8624 15.068ZM49.8624 15.068C49.8623 15.0682 49.8624 15.0678 49.8624 15.068Z" stroke="white" stroke-width="0.4"/>
</svg>
