<svg width="65" height="81" viewBox="0 0 65 81" fill="none" xmlns="http://www.w3.org/2000/svg">
<g clip-path="url(#clip0_28_76)">
<path d="M32.2244 72.0156C49.8975 72.0156 64.2244 57.6887 64.2244 40.0156C64.2244 22.3425 49.8975 8.01562 32.2244 8.01562C14.5513 8.01562 0.224396 22.3425 0.224396 40.0156C0.224396 57.6887 14.5513 72.0156 32.2244 72.0156Z" fill="#FFEBF0"/>
<path d="M38.8898 25.8784C34.4714 25.8784 30.8898 29.4602 30.8898 33.8783C30.8898 38.2965 34.4714 41.8784 38.8898 41.8784C43.3081 41.8784 46.8898 38.2965 46.8898 33.8783C46.8898 29.4602 43.3081 25.8784 38.8898 25.8784ZM38.8898 40.0244C35.4953 40.0244 32.7438 37.2726 32.7438 33.8784C32.7438 30.4842 35.4953 27.7325 38.8898 27.7325C42.2842 27.7325 45.0357 30.4842 45.0357 33.8784C45.0357 37.2726 42.2842 40.0244 38.8898 40.0244Z" fill="#E24353"/>
<path d="M45.3152 46.4816C43.6658 47.392 41.3973 48.2337 39.1349 48.5885C37.122 48.9042 33.3353 48.1429 33.3353 47.2438C33.3353 46.9031 36.6564 48.0833 38.6654 47.5473C40.2059 47.1363 39.9872 45.6953 39.1493 45.5052C38.3162 45.3161 33.4357 43.5281 31.351 43.4665C30.3689 43.4374 27.9444 43.808 26.7713 43.9991C26.3694 44.0645 26.1174 44.0573 26.0922 44.4419C25.9755 46.2293 25.7454 49.8847 25.62 51.794C25.6173 51.8343 25.6734 52.3769 26.1211 51.9951C26.6111 51.5772 27.2984 51.1141 27.9341 51.2583C28.9314 51.4845 37.5597 53.0652 38.7498 52.7886C40.4523 52.3928 45.272 49.5366 46.1961 48.6488C47.6283 47.2725 46.5149 45.8194 45.3152 46.4816Z" fill="#E24353"/>
<path d="M23.7107 43.9296L19.1906 43.7068C18.8416 43.6897 18.4852 43.9526 18.3985 44.291L17.5766 51.753C17.49 52.0915 17.7048 52.3795 18.0539 52.393L23.0633 52.3925C23.4125 52.406 23.7199 52.132 23.7467 51.7836L24.2968 44.5942C24.3234 44.2459 24.0597 43.9468 23.7107 43.9296ZM21.0497 51.4039C20.3594 51.4039 19.8 50.8444 19.8 50.1542C19.8 49.4639 20.3595 48.9045 21.0497 48.9045C21.7399 48.9045 22.2994 49.464 22.2994 50.1542C22.2994 50.8445 21.74 51.4039 21.0497 51.4039Z" fill="#E24353"/>
<path d="M35.5931 36.8133C35.5931 36.8685 35.6379 36.9133 35.6932 36.9133H36.5235C36.5787 36.9133 36.6235 36.8685 36.6235 36.8133V35.4226C36.6235 34.8249 36.6883 34.3523 36.8136 34.0002C36.9378 33.6512 37.1329 33.4007 37.3961 33.2403C37.6489 33.0897 37.9763 32.9931 38.3827 32.955V35.2826C38.3827 35.3379 38.4274 35.3826 38.4827 35.3826H39.3036C39.3589 35.3826 39.4036 35.3379 39.4036 35.2826V32.9557C39.779 32.9942 40.0879 33.0903 40.3339 33.2401L40.336 33.2413C40.6054 33.3961 40.8095 33.644 40.9457 33.9936L40.9463 33.995C41.0888 34.3454 41.1628 34.8225 41.1628 35.432V36.8133C41.1628 36.8685 41.2076 36.9133 41.2628 36.9133H42.0932C42.1484 36.9133 42.1932 36.8685 42.1932 36.8133V35.4133C42.1932 34.6406 42.0898 34.0123 41.8767 33.5342C41.6634 33.0492 41.3379 32.6864 40.9005 32.451C40.4947 32.2236 39.9945 32.0893 39.4036 32.0439V30.1493C39.4036 30.0941 39.3589 30.0493 39.3036 30.0493H38.4827C38.4274 30.0493 38.3827 30.0941 38.3827 30.1493V32.0434C37.7443 32.0885 37.2182 32.226 36.8096 32.4612C36.3838 32.7037 36.0742 33.0739 35.8801 33.5657C35.6871 34.0486 35.5931 34.6754 35.5931 35.4413V36.8133Z" fill="#E24353" stroke="#E24353" stroke-width="0.2" stroke-linecap="round" stroke-linejoin="round"/>
</g>
<defs>
<clipPath id="clip0_28_76">
<rect width="64" height="80" fill="white" transform="translate(0.224396 0.015625)"/>
</clipPath>
</defs>
</svg>
