<svg width="17" height="17" viewBox="0 0 17 17" fill="none" xmlns="http://www.w3.org/2000/svg">
<g clip-path="url(#clip0_36_136)">
<mask id="mask0_36_136" style="mask-type:luminance" maskUnits="userSpaceOnUse" x="0" y="0" width="17" height="17">
<path d="M0.45752 0.555176H16.4575V16.5552H0.45752V0.555176Z" fill="white"/>
</mask>
<g mask="url(#mask0_36_136)">
<path d="M8.99052 5.06518L8.95752 3.55518L7.89552 4.09518L7.86552 5.07118C3.72152 5.47318 0.45752 10.0322 0.45752 15.6012C0.45752 15.9592 0.47052 16.3142 0.49752 16.6642H1.94752C1.93304 16.4061 1.92537 16.1477 1.92452 15.8892C1.92452 10.8392 4.51752 6.69318 7.82552 6.24918L7.53052 15.7352L9.21252 14.9252L9.01652 6.25018C12.3175 6.70418 14.9025 10.8452 14.9025 15.8902C14.9025 16.1502 14.8925 16.4072 14.8795 16.6642H16.4165C16.4435 16.3142 16.4575 15.9592 16.4575 15.6002C16.4605 10.0042 13.1615 5.42718 8.99052 5.06518Z" fill="#099A71"/>
</g>
</g>
<defs>
<clipPath id="clip0_36_136">
<rect width="16" height="16" fill="white" transform="translate(0.45752 0.555176)"/>
</clipPath>
</defs>
</svg>
