<svg width="20" height="20" viewBox="0 0 20 20" fill="none" xmlns="http://www.w3.org/2000/svg">
<g clip-path="url(#clip0_36_127)">
<path d="M0 0H20V20H0V0Z" fill="white"/>
<path d="M7.29004 15.2581H12.694V5.34814H7.29104L7.29004 15.2581Z" fill="#E15D29"/>
<path d="M7.644 10.254C7.64203 9.30936 7.85353 8.37647 8.26271 7.52504C8.67189 6.67361 9.26817 5.92564 10.007 5.337C8.92157 4.46995 7.57322 3.9984 6.184 4C2.77 4 0 6.8 0 10.254C0 13.708 2.769 16.508 6.184 16.508C7.627 16.508 8.954 16.008 10.007 15.171C9.26817 14.5824 8.67189 13.8344 8.26271 12.983C7.85353 12.1315 7.64203 11.1987 7.644 10.254Z" fill="#D2232C"/>
<path d="M19.9999 10.254C19.9999 13.708 17.2319 16.508 13.8149 16.508C12.426 16.5095 11.078 16.038 9.99292 15.171C10.7317 14.5824 11.3278 13.8344 11.7369 12.9829C12.1459 12.1315 12.3572 11.1986 12.3549 10.254C12.3572 9.30941 12.1459 8.37653 11.7369 7.52508C11.3278 6.67363 10.7317 5.92564 9.99292 5.337C11.0781 4.47023 12.4261 3.9987 13.8149 4C17.2309 4 19.9999 6.8 19.9999 10.254Z" fill="#EC972D"/>
</g>
<defs>
<clipPath id="clip0_36_127">
<rect width="20" height="20" fill="white"/>
</clipPath>
</defs>
</svg>
