<svg width="107" height="42" viewBox="0 0 107 42" fill="none" xmlns="http://www.w3.org/2000/svg">
<g clip-path="url(#clip0_1_33)">
<path d="M0.916001 16.596C1.421 17.286 1.836 18.045 2.1 18.872C2.375 19.7 2.536 20.574 2.536 21.493C2.536 22.413 2.386 23.298 2.1 24.114C1.82869 24.9307 1.42901 25.699 0.916001 26.39C0.750708 26.6117 0.630858 26.8638 0.563341 27.1319C0.495825 27.4001 0.481974 27.6789 0.522585 27.9524C0.563196 28.2259 0.657468 28.4887 0.799981 28.7256C0.942493 28.9625 1.13044 29.169 1.353 29.333C2.283 30.023 3.605 29.827 4.295 28.896C5.07132 27.8528 5.67656 26.6926 6.088 25.459C6.513 24.217 6.743 22.872 6.743 21.493C6.74801 18.8275 5.89339 16.2314 4.306 14.09C3.97303 13.643 3.47647 13.3461 2.92506 13.2643C2.37365 13.1826 1.81232 13.3227 1.364 13.654C1.13875 13.8157 0.9481 14.0208 0.803252 14.2572C0.658405 14.4936 0.562285 14.7566 0.520546 15.0307C0.478806 15.3048 0.492289 15.5845 0.560201 15.8533C0.628113 16.1221 0.749084 16.3746 0.916001 16.596ZM8.133 12.666C9.76976 15.3188 10.6335 18.3759 10.627 21.493C10.627 24.735 9.719 27.758 8.133 30.321C7.524 31.31 7.823 32.609 8.823 33.218C9.811 33.828 11.121 33.517 11.719 32.528C13.696 29.321 14.845 25.528 14.845 21.493C14.845 17.447 13.695 13.665 11.719 10.458C11.4261 9.98288 10.9567 9.64337 10.4137 9.514C9.87077 9.38464 9.29867 9.47599 8.823 9.76802C8.58689 9.91239 8.38165 10.102 8.21907 10.326C8.0565 10.5499 7.93979 10.8038 7.87567 11.0731C7.81155 11.3423 7.80127 11.6215 7.84543 11.8947C7.8896 12.1679 7.98732 12.4297 8.133 12.665V12.666ZM15.776 8.66502C18.0517 12.5564 19.2462 16.9851 19.236 21.493C19.236 26.183 17.983 30.551 15.776 34.321C15.4953 34.8047 15.4175 35.3799 15.5597 35.9207C15.702 36.4615 16.0526 36.924 16.535 37.207C17.0168 37.4894 17.591 37.5692 18.1316 37.429C18.6722 37.2888 19.1351 36.94 19.419 36.459C22.0675 31.9209 23.4599 26.7594 23.453 21.505C23.4604 16.2504 22.0684 11.0885 19.42 6.55002C19.1372 6.068 18.6751 5.71755 18.1346 5.57532C17.5942 5.43309 17.0194 5.51064 16.536 5.79102C16.2974 5.92981 16.0884 6.11426 15.9211 6.33384C15.7538 6.55342 15.6314 6.80382 15.5609 7.07073C15.4904 7.33764 15.4732 7.61582 15.5103 7.88938C15.5474 8.16293 15.638 8.4265 15.777 8.66502H15.776ZM23.407 4.65302C26.3298 9.78801 27.8629 15.5965 27.855 21.505C27.8643 27.4099 26.331 33.2149 23.407 38.345C23.1326 38.8303 23.0607 39.4044 23.2072 39.9423C23.3536 40.4803 23.7064 40.9387 24.189 41.218C24.4297 41.3548 24.6949 41.4428 24.9696 41.4769C25.2443 41.5111 25.5231 41.4908 25.7899 41.4171C26.0567 41.3435 26.3064 41.2179 26.5247 41.0477C26.743 40.8775 26.9256 40.6659 27.062 40.425C30.3438 34.6554 32.067 28.1307 32.062 21.493C32.0711 14.8548 30.3476 8.32911 27.062 2.56102C26.7859 2.07518 26.3282 1.71879 25.7896 1.57011C25.2509 1.42142 24.6752 1.4926 24.189 1.76802C23.189 2.36602 22.833 3.64202 23.407 4.65302ZM45.2 9.82002C45.8795 9.81691 46.5507 9.9684 47.163 10.263C47.453 10.409 47.706 10.584 47.943 10.79C48.172 10.997 48.37 11.234 48.523 11.493L47.438 12.211C47.1917 11.8462 46.8579 11.5489 46.4672 11.3463C46.0764 11.1436 45.6411 11.0421 45.201 11.051C44.788 11.051 44.414 11.119 44.063 11.264C43.711 11.409 43.413 11.608 43.161 11.86C42.909 12.112 42.711 12.425 42.566 12.784C42.419 13.1612 42.3463 13.5632 42.352 13.968C42.352 14.404 42.421 14.793 42.566 15.152C42.711 15.512 42.909 15.817 43.161 16.077C43.413 16.329 43.711 16.535 44.063 16.672C44.414 16.81 44.788 16.886 45.201 16.886C45.6393 16.8946 46.0728 16.7936 46.4622 16.5923C46.8516 16.3909 47.1846 16.0956 47.431 15.733L48.485 16.504C48.3148 16.7542 48.1116 16.9802 47.881 17.176C47.652 17.376 47.393 17.543 47.118 17.688C46.835 17.826 46.538 17.94 46.208 18.009C45.888 18.085 45.552 18.124 45.201 18.124C44.6209 18.1287 44.0452 18.0225 43.505 17.811C43.0055 17.6178 42.5525 17.321 42.176 16.94C41.8009 16.563 41.5072 16.1131 41.313 15.618C41.1 15.13 41 14.58 41 13.976C41 13.372 41.1 12.822 41.306 12.318C41.512 11.806 41.802 11.371 42.169 10.997C42.535 10.63 42.979 10.34 43.498 10.126C44.0417 9.9201 44.6187 9.81636 45.2 9.82002ZM52.502 12.356C52.922 12.356 53.319 12.433 53.678 12.578C54.038 12.723 54.35 12.929 54.618 13.181C54.8898 13.4505 55.1043 13.7722 55.2487 14.1267C55.393 14.4812 55.4642 14.8613 55.458 15.244C55.458 15.656 55.381 16.038 55.236 16.39C55.0926 16.7332 54.8825 17.0445 54.618 17.306C54.35 17.566 54.045 17.765 53.678 17.91C53.3039 18.0587 52.9046 18.1337 52.502 18.131C52.0994 18.1344 51.6999 18.0594 51.326 17.91C50.9791 17.771 50.6626 17.5659 50.394 17.306C50.1221 17.0366 49.9075 16.7149 49.7631 16.3604C49.6188 16.0058 49.5476 15.6258 49.554 15.243C49.554 14.831 49.63 14.45 49.775 14.098C49.928 13.747 50.127 13.441 50.395 13.181C50.654 12.921 50.967 12.723 51.325 12.578C51.6992 12.4282 52.099 12.3528 52.502 12.356ZM52.502 13.487C52.258 13.487 52.028 13.533 51.822 13.617C51.608 13.701 51.432 13.823 51.28 13.976C51.1234 14.1351 51.0012 14.3247 50.921 14.533C50.837 14.747 50.791 14.984 50.791 15.243C50.791 15.503 50.837 15.74 50.921 15.954C51.013 16.168 51.127 16.359 51.281 16.512C51.433 16.665 51.616 16.787 51.822 16.871C52.028 16.955 52.258 17.001 52.502 17.001C52.746 17.001 52.976 16.955 53.182 16.871C53.388 16.787 53.572 16.665 53.732 16.511C53.884 16.359 54.007 16.176 54.098 15.954C54.19 15.74 54.228 15.504 54.228 15.244C54.228 14.984 54.182 14.747 54.098 14.534C54.0135 14.326 53.8891 14.1364 53.732 13.976C53.5756 13.8192 53.3883 13.6966 53.182 13.616C52.9658 13.5293 52.7349 13.4855 52.502 13.487ZM59.819 12.357C60.139 12.357 60.445 12.41 60.712 12.517C60.987 12.624 61.224 12.777 61.422 12.967C61.622 13.158 61.774 13.387 61.881 13.655C61.988 13.922 62.041 14.22 62.041 14.541V17.986H60.842V14.931C60.842 14.465 60.728 14.113 60.506 13.861C60.285 13.609 59.971 13.487 59.566 13.487C59.376 13.487 59.185 13.517 59.016 13.579C58.844 13.6382 58.6872 13.7346 58.5567 13.8613C58.4263 13.988 58.3253 14.1419 58.261 14.312C58.184 14.495 58.146 14.702 58.146 14.931V17.971H56.947V12.486H58.138V13.158C58.245 12.998 58.375 12.868 58.505 12.761C58.635 12.6571 58.7791 12.5722 58.933 12.509C59.086 12.449 59.231 12.402 59.383 12.379C59.528 12.372 59.673 12.356 59.819 12.356V12.357ZM67.548 13.587H65.448V15.977C65.448 16.161 65.471 16.321 65.516 16.451C65.562 16.581 65.623 16.688 65.7 16.771C65.7749 16.8543 65.8694 16.9176 65.975 16.955C66.082 16.993 66.196 17.016 66.318 17.016C66.509 17.016 66.692 16.978 66.891 16.909C67.082 16.84 67.265 16.749 67.426 16.649L67.899 17.604C67.6653 17.7599 67.4143 17.8881 67.151 17.986C66.876 18.093 66.563 18.146 66.211 18.146C65.593 18.146 65.104 17.971 64.761 17.627C64.417 17.284 64.241 16.741 64.241 16.015V13.602H63.149V12.517H64.241V10.852H65.448V12.517H67.548V13.587ZM74.276 17.987H73.077V17.329C72.8879 17.5742 72.645 17.7727 72.367 17.909C72.085 18.055 71.749 18.131 71.351 18.131C70.969 18.131 70.611 18.063 70.275 17.918C69.9501 17.7753 69.6547 17.5732 69.404 17.322C69.1478 17.061 68.95 16.7484 68.824 16.405C68.6767 16.0359 68.6036 15.6414 68.609 15.244C68.609 14.824 68.679 14.434 68.823 14.083C68.9556 13.7429 69.1525 13.4316 69.403 13.166C69.6561 12.9064 69.9593 12.7008 70.2941 12.5616C70.6289 12.4224 70.9884 12.3524 71.351 12.356C71.749 12.356 72.085 12.433 72.367 12.578C72.65 12.723 72.887 12.922 73.077 13.166V12.502H74.277V17.986L74.276 17.987ZM71.504 13.487C71.244 13.487 71.015 13.533 70.809 13.624C70.6105 13.7129 70.4332 13.8431 70.289 14.006C70.152 14.166 70.038 14.35 69.961 14.564C69.8843 14.7825 69.8457 15.0125 69.847 15.244C69.847 15.488 69.885 15.71 69.961 15.924C70.038 16.138 70.145 16.321 70.29 16.481C70.435 16.641 70.603 16.764 70.81 16.863C71.015 16.955 71.244 17.001 71.504 17.001C71.756 17.001 71.978 16.955 72.184 16.863C72.382 16.772 72.558 16.649 72.704 16.497C72.848 16.337 72.963 16.153 73.039 15.939C73.12 15.7135 73.1616 15.4757 73.162 15.236C73.162 14.984 73.123 14.755 73.039 14.541C72.9622 14.336 72.8483 14.1468 72.703 13.983C72.5586 13.8244 72.3811 13.6994 72.183 13.617C71.9672 13.5301 71.7366 13.486 71.504 13.487ZM78.653 12.357C79.065 12.357 79.447 12.433 79.806 12.578C80.157 12.723 80.463 12.945 80.707 13.235L79.944 14.052C79.7662 13.8809 79.5623 13.7392 79.34 13.632C79.1171 13.5313 78.8745 13.4818 78.63 13.487C78.4 13.487 78.187 13.533 77.988 13.617C77.7935 13.698 77.6191 13.8205 77.477 13.976C77.332 14.129 77.217 14.32 77.133 14.533C77.049 14.747 77.011 14.984 77.011 15.243C77.011 15.503 77.049 15.74 77.133 15.954C77.217 16.168 77.332 16.359 77.477 16.512C77.622 16.665 77.797 16.787 77.988 16.871C78.2079 16.9619 78.4443 17.0061 78.6821 17.001C78.92 16.9958 79.1542 16.9413 79.37 16.841C79.6 16.733 79.798 16.596 79.974 16.428L80.714 17.253C80.463 17.543 80.157 17.765 79.806 17.91C79.4424 18.0587 79.0529 18.1338 78.66 18.131C78.225 18.131 77.828 18.055 77.477 17.91C77.1357 17.7727 76.8261 17.5672 76.567 17.306C76.3141 17.0428 76.1168 16.7312 75.987 16.39C75.847 16.0243 75.7771 15.6356 75.781 15.244C75.781 14.831 75.85 14.45 75.987 14.098C76.125 13.747 76.323 13.441 76.567 13.181C76.82 12.921 77.125 12.723 77.477 12.578C77.82 12.433 78.217 12.356 78.653 12.356V12.357ZM85.84 13.587H83.74V15.977C83.74 16.161 83.762 16.321 83.808 16.451C83.847 16.5688 83.9093 16.6776 83.991 16.771C84.0659 16.8543 84.1604 16.9176 84.266 16.955C84.373 16.993 84.488 17.016 84.61 17.016C84.801 17.016 84.984 16.978 85.183 16.909C85.373 16.84 85.557 16.749 85.717 16.649L86.191 17.604C85.957 17.76 85.7057 17.8882 85.442 17.986C85.168 18.093 84.854 18.146 84.503 18.146C83.885 18.146 83.396 17.971 83.052 17.627C82.708 17.284 82.532 16.741 82.532 16.015V13.602H81.441V12.517H82.533V10.852H83.739V12.517H85.839L85.84 13.587ZM88.505 17.987H87.306V9.73702H88.506L88.505 17.987ZM92.721 12.357C93.103 12.357 93.454 12.425 93.775 12.563C94.095 12.7 94.371 12.899 94.592 13.151C94.822 13.403 94.997 13.709 95.127 14.06C95.257 14.411 95.317 14.8 95.317 15.229C95.317 15.305 95.317 15.381 95.31 15.458C95.31 15.534 95.302 15.603 95.295 15.679H91.239C91.278 15.931 91.346 16.138 91.453 16.313C91.6417 16.6446 91.9507 16.891 92.316 17.001C92.5 17.054 92.683 17.085 92.881 17.085C93.156 17.085 93.431 17.031 93.706 16.932C93.981 16.832 94.233 16.688 94.462 16.504L95.058 17.36C94.722 17.65 94.363 17.849 93.988 17.963C93.6019 18.0779 93.2008 18.1346 92.798 18.131C92.385 18.131 92.003 18.063 91.659 17.925C91.3254 17.7939 91.0234 17.5935 90.773 17.337C90.5184 17.0774 90.3209 16.7674 90.193 16.427C90.0511 16.049 89.9813 15.6478 89.987 15.244C89.987 14.816 90.056 14.427 90.185 14.068C90.323 13.716 90.506 13.411 90.751 13.151C90.995 12.899 91.278 12.701 91.614 12.563C91.9656 12.4213 92.3419 12.351 92.721 12.356V12.357ZM92.698 13.426C92.484 13.426 92.293 13.456 92.125 13.526C91.9645 13.5853 91.8188 13.6788 91.698 13.8C91.5733 13.9232 91.4723 14.0683 91.4 14.228C91.323 14.396 91.27 14.579 91.24 14.778H94.088C94.028 14.35 93.874 14.014 93.63 13.778C93.385 13.54 93.08 13.426 92.698 13.426ZM100.534 13.876C100.45 13.823 100.343 13.777 100.221 13.716C100.089 13.6579 99.9536 13.6068 99.816 13.563C99.6606 13.5161 99.5027 13.478 99.343 13.449C99.1767 13.4186 99.008 13.4032 98.839 13.403C98.51 13.403 98.259 13.464 98.075 13.586C97.892 13.709 97.8 13.861 97.8 14.06C97.8 14.152 97.823 14.236 97.869 14.297C97.9175 14.3658 97.983 14.4209 98.059 14.457C98.1494 14.5063 98.2474 14.5401 98.349 14.557C98.457 14.579 98.579 14.602 98.701 14.625L99.266 14.709C99.87 14.801 100.336 14.969 100.672 15.236C101.008 15.496 101.176 15.863 101.176 16.336C101.18 16.5885 101.123 16.8382 101.008 17.0633C100.894 17.2884 100.726 17.4819 100.519 17.627C100.283 17.7986 100.015 17.9232 99.732 17.994C99.419 18.078 99.068 18.124 98.678 18.124C98.3131 18.1263 97.9492 18.0854 97.594 18.002C97.3749 17.9469 97.1603 17.8753 96.952 17.788C96.7297 17.6935 96.5195 17.5727 96.326 17.428L96.884 16.528C96.983 16.604 97.09 16.672 97.204 16.741C97.319 16.81 97.449 16.871 97.601 16.917C97.746 16.97 97.907 17.008 98.091 17.039C98.266 17.069 98.472 17.085 98.694 17.085C99.106 17.085 99.419 17.024 99.625 16.901C99.839 16.779 99.939 16.619 99.939 16.413C99.939 16.253 99.862 16.13 99.709 16.023C99.557 15.923 99.312 15.847 98.984 15.802L98.411 15.725C97.8 15.641 97.334 15.465 97.021 15.19C96.708 14.915 96.547 14.556 96.547 14.113C96.547 13.846 96.601 13.602 96.707 13.38C96.815 13.166 96.96 12.975 97.158 12.83C97.357 12.677 97.594 12.563 97.868 12.479C98.151 12.395 98.464 12.356 98.816 12.356C99.251 12.356 99.656 12.41 100.038 12.509C100.392 12.5971 100.73 12.7416 101.038 12.937L100.534 13.876ZM106.323 13.876C106.239 13.823 106.132 13.777 106.01 13.716C105.878 13.6578 105.743 13.6067 105.605 13.563C105.45 13.5159 105.292 13.4779 105.132 13.449C104.966 13.4185 104.797 13.4031 104.628 13.403C104.299 13.403 104.047 13.464 103.864 13.586C103.681 13.709 103.589 13.861 103.589 14.06C103.589 14.152 103.612 14.236 103.658 14.297C103.707 14.3658 103.773 14.4209 103.849 14.457C103.939 14.5063 104.037 14.5401 104.139 14.557C104.246 14.579 104.368 14.602 104.49 14.625L105.056 14.709C105.659 14.801 106.125 14.969 106.461 15.236C106.797 15.496 106.965 15.863 106.965 16.336C106.965 16.604 106.912 16.84 106.797 17.062C106.682 17.2868 106.514 17.4806 106.308 17.627C106.094 17.787 105.835 17.91 105.521 17.994C105.208 18.078 104.857 18.124 104.468 18.124C104.103 18.1263 103.739 18.0854 103.383 18.002C103.164 17.9468 102.949 17.8753 102.741 17.788C102.519 17.6933 102.309 17.5725 102.115 17.428L102.673 16.528C102.772 16.604 102.879 16.672 102.993 16.741C103.108 16.81 103.238 16.871 103.391 16.917C103.536 16.97 103.696 17.008 103.879 17.039C104.055 17.069 104.261 17.085 104.483 17.085C104.895 17.085 105.208 17.024 105.415 16.901C105.628 16.779 105.728 16.619 105.728 16.413C105.728 16.253 105.651 16.13 105.499 16.023C105.346 15.923 105.101 15.847 104.773 15.802L104.2 15.725C103.589 15.641 103.123 15.465 102.81 15.19C102.497 14.915 102.337 14.556 102.337 14.113C102.337 13.846 102.39 13.602 102.497 13.38C102.604 13.166 102.749 12.975 102.948 12.83C103.161 12.671 103.402 12.5521 103.658 12.479C103.966 12.3925 104.285 12.351 104.605 12.356C105.04 12.356 105.445 12.41 105.827 12.509C106.181 12.5971 106.519 12.7416 106.827 12.937L106.323 13.876ZM48.993 30.208H47.603L46.808 28.161H43.18L42.386 30.208H41.042L44.212 22.188H45.83L48.993 30.208ZM43.653 26.938H46.334L44.998 23.478L43.653 26.938ZM52.543 24.578C52.956 24.578 53.338 24.655 53.697 24.8C54.048 24.945 54.354 25.167 54.598 25.457L53.835 26.274C53.6571 26.103 53.4533 25.9612 53.231 25.854C53.0081 25.7534 52.7655 25.7038 52.521 25.709C52.291 25.709 52.078 25.755 51.879 25.839C51.6845 25.92 51.5101 26.0425 51.368 26.198C51.222 26.351 51.108 26.542 51.024 26.756C50.94 26.969 50.902 27.206 50.902 27.466C50.902 27.726 50.94 27.962 51.024 28.176C51.108 28.39 51.222 28.581 51.368 28.734C51.513 28.887 51.681 29.009 51.879 29.093C52.0989 29.1838 52.3353 29.2279 52.5731 29.2228C52.811 29.2176 53.0452 29.1632 53.261 29.063C53.491 28.956 53.689 28.818 53.865 28.65L54.605 29.475C54.354 29.765 54.048 29.987 53.697 30.132C53.3334 30.2807 52.9439 30.3558 52.551 30.353C52.116 30.353 51.719 30.277 51.368 30.132C51.0267 29.9947 50.7171 29.7892 50.458 29.528C50.2051 29.2648 50.0078 28.9532 49.878 28.612C49.738 28.2463 49.6681 27.8576 49.672 27.466C49.672 27.053 49.741 26.672 49.878 26.32C50.016 25.969 50.214 25.663 50.458 25.404C50.711 25.144 51.016 24.945 51.368 24.8C51.711 24.655 52.107 24.578 52.543 24.578ZM58.31 24.578C58.722 24.578 59.104 24.655 59.463 24.8C59.815 24.945 60.12 25.167 60.365 25.457L59.601 26.274C59.4235 26.103 59.2199 25.9613 58.998 25.854C58.7751 25.7534 58.5325 25.7038 58.288 25.709C58.058 25.709 57.844 25.755 57.646 25.839C57.4511 25.9198 57.2764 26.0424 57.134 26.198C56.989 26.351 56.874 26.542 56.79 26.756C56.706 26.969 56.668 27.206 56.668 27.466C56.668 27.726 56.706 27.962 56.79 28.176C56.874 28.39 56.989 28.581 57.134 28.734C57.279 28.887 57.454 29.009 57.646 29.093C57.8659 29.1838 58.1023 29.2279 58.3401 29.2228C58.578 29.2176 58.8122 29.1632 59.028 29.063C59.258 28.956 59.456 28.818 59.631 28.65L60.372 29.475C60.12 29.765 59.815 29.987 59.463 30.132C59.0997 30.2806 58.7105 30.3557 58.318 30.353C57.882 30.353 57.485 30.277 57.134 30.132C56.7931 29.9946 56.4838 29.7891 56.225 29.528C55.9721 29.2648 55.7748 28.9532 55.645 28.612C55.5047 28.2464 55.4345 27.8576 55.438 27.466C55.438 27.053 55.508 26.672 55.645 26.32C55.782 25.969 55.981 25.663 56.225 25.404C56.477 25.144 56.783 24.945 57.134 24.8C57.478 24.655 57.874 24.578 58.31 24.578ZM63.924 24.578C64.305 24.578 64.657 24.648 64.978 24.785C65.298 24.922 65.573 25.121 65.795 25.373C66.024 25.625 66.2 25.931 66.329 26.282C66.459 26.633 66.52 27.022 66.52 27.451C66.52 27.527 66.52 27.603 66.513 27.68C66.513 27.756 66.505 27.825 66.497 27.901H62.442C62.48 28.154 62.549 28.36 62.656 28.535C62.8448 28.8666 63.1537 29.1129 63.519 29.223C63.702 29.276 63.886 29.307 64.084 29.307C64.359 29.307 64.634 29.253 64.909 29.154C65.184 29.054 65.436 28.91 65.665 28.726L66.261 29.582C65.925 29.872 65.566 30.071 65.191 30.185C64.8046 30.3 64.4032 30.3567 64 30.353C63.588 30.353 63.206 30.285 62.862 30.147C62.5284 30.0159 62.2264 29.8155 61.976 29.559C61.7216 29.2997 61.524 28.9901 61.396 28.65C61.254 28.2717 61.1841 27.8701 61.19 27.466C61.19 27.038 61.258 26.649 61.388 26.29C61.526 25.938 61.708 25.633 61.953 25.373C62.198 25.121 62.48 24.923 62.816 24.785C63.1682 24.6439 63.5447 24.5736 63.924 24.578ZM63.901 25.648C63.687 25.648 63.496 25.678 63.328 25.748C63.16 25.808 63.015 25.908 62.9 26.022C62.778 26.145 62.679 26.282 62.602 26.45C62.526 26.618 62.472 26.801 62.442 27H65.291C65.222 26.572 65.077 26.236 64.832 26C64.596 25.762 64.282 25.648 63.901 25.648ZM70.92 24.578C71.2824 24.5746 71.6417 24.6447 71.9763 24.7839C72.311 24.9231 72.6139 25.1286 72.867 25.388C73.119 25.64 73.31 25.946 73.447 26.305C73.593 26.656 73.662 27.045 73.662 27.466C73.662 27.886 73.592 28.276 73.448 28.627C73.3154 28.9671 73.1185 29.2785 72.868 29.544C72.615 29.804 72.325 30.002 71.997 30.14C71.6556 30.2816 71.2896 30.354 70.92 30.353C70.522 30.353 70.186 30.285 69.912 30.132C69.6356 29.9932 69.3932 29.7952 69.202 29.552V32.5H68.002V24.724H69.202V25.373C69.392 25.136 69.629 24.937 69.912 24.793C70.2267 24.6438 70.5718 24.5702 70.92 24.578ZM70.775 25.709C70.522 25.709 70.301 25.755 70.095 25.846C69.8999 25.9342 69.7234 26.0587 69.575 26.213C69.427 26.3748 69.3128 26.5645 69.239 26.771C69.1576 26.9964 69.1163 27.2344 69.117 27.474C69.117 27.726 69.155 27.962 69.239 28.176C69.323 28.39 69.43 28.574 69.575 28.734C69.72 28.894 69.896 29.017 70.095 29.101C70.301 29.192 70.522 29.238 70.775 29.238C71.026 29.238 71.263 29.192 71.469 29.101C71.6687 29.0141 71.8463 28.8835 71.989 28.719C72.126 28.559 72.241 28.375 72.317 28.161C72.394 27.947 72.432 27.718 72.432 27.481C72.432 27.244 72.394 27.015 72.317 26.801C72.2459 26.5954 72.1344 26.406 71.989 26.244C71.8427 26.0835 71.6659 25.9536 71.469 25.862C71.2533 25.7561 71.0153 25.7036 70.775 25.709ZM78.825 25.809H76.725V28.199C76.725 28.383 76.747 28.543 76.793 28.673C76.839 28.803 76.9 28.91 76.976 28.993C77.0509 29.0763 77.1454 29.1396 77.251 29.177C77.358 29.215 77.473 29.238 77.595 29.238C77.785 29.238 77.969 29.2 78.168 29.131C78.358 29.062 78.542 28.971 78.702 28.871L79.176 29.826C78.942 29.982 78.6906 30.1102 78.427 30.208C78.152 30.315 77.839 30.368 77.487 30.368C76.869 30.368 76.38 30.193 76.037 29.849C75.693 29.506 75.517 28.963 75.517 28.238V25.824H74.425V24.739H75.517V23.074H76.724V24.739H78.824L78.825 25.809ZM82.628 24.579C83.01 24.579 83.361 24.647 83.682 24.785C84.002 24.922 84.278 25.121 84.499 25.373C84.729 25.625 84.904 25.931 85.034 26.282C85.164 26.633 85.224 27.022 85.224 27.451C85.224 27.527 85.224 27.603 85.217 27.68C85.217 27.756 85.209 27.825 85.202 27.901H81.146C81.184 28.154 81.253 28.36 81.36 28.535C81.5486 28.8667 81.8576 29.1131 82.223 29.223C82.406 29.276 82.59 29.307 82.788 29.307C83.063 29.307 83.338 29.253 83.613 29.154C83.888 29.054 84.14 28.91 84.369 28.726L84.965 29.582C84.629 29.872 84.27 30.071 83.895 30.185C83.5089 30.2999 83.1078 30.3566 82.705 30.353C82.292 30.353 81.91 30.285 81.566 30.147C81.2324 30.0159 80.9304 29.8155 80.68 29.559C80.4255 29.2997 80.228 28.9901 80.1 28.65C79.958 28.2717 79.8881 27.8701 79.894 27.466C79.894 27.038 79.962 26.649 80.092 26.29C80.23 25.938 80.413 25.633 80.657 25.373C80.902 25.121 81.184 24.923 81.52 24.785C81.8719 24.6432 82.2486 24.5729 82.628 24.578V24.579ZM82.605 25.648C82.391 25.648 82.2 25.678 82.032 25.748C81.8715 25.8073 81.7258 25.9008 81.605 26.022C81.482 26.145 81.383 26.282 81.307 26.45C81.23 26.618 81.177 26.801 81.147 27H83.995C83.934 26.572 83.781 26.236 83.537 26C83.292 25.762 82.987 25.648 82.605 25.648ZM89.051 24.578C89.448 24.578 89.784 24.655 90.067 24.8C90.349 24.945 90.587 25.144 90.777 25.388V21.966H91.977V30.216H90.777V29.559C90.588 29.8043 90.345 30.0027 90.067 30.139C89.784 30.285 89.448 30.361 89.051 30.361C88.669 30.361 88.311 30.292 87.974 30.147C87.6494 30.0042 87.3544 29.8021 87.104 29.551C86.8475 29.2904 86.6495 28.9781 86.523 28.635C86.376 28.2659 86.3033 27.8713 86.309 27.474C86.309 27.054 86.378 26.664 86.523 26.312C86.6557 25.9723 86.8526 25.6613 87.103 25.396C87.356 25.136 87.646 24.937 87.974 24.8C88.3139 24.6526 88.6805 24.5771 89.051 24.578ZM89.196 25.709C88.936 25.709 88.707 25.755 88.501 25.846C88.3024 25.9352 88.1251 26.0658 87.981 26.229C87.844 26.389 87.73 26.572 87.653 26.786C87.5763 27.0045 87.5378 27.2345 87.539 27.466C87.539 27.71 87.577 27.932 87.653 28.146C87.73 28.36 87.837 28.543 87.982 28.703C88.127 28.863 88.295 28.986 88.502 29.085C88.707 29.177 88.936 29.223 89.196 29.223C89.448 29.223 89.67 29.177 89.876 29.085C90.074 28.994 90.25 28.872 90.396 28.719C90.54 28.559 90.655 28.375 90.731 28.161C90.8934 27.7068 90.8934 27.2103 90.731 26.756C90.6542 26.551 90.5403 26.3618 90.395 26.198C90.2507 26.039 90.0732 25.9137 89.875 25.831C89.6577 25.7504 89.4278 25.7091 89.196 25.709Z" fill="black"/>
</g>
<defs>
<clipPath id="clip0_1_33">
<rect width="107" height="41" fill="white" transform="translate(0 0.5)"/>
</clipPath>
</defs>
</svg>
