<svg width="40" height="40" viewBox="0 0 40 40" fill="none" xmlns="http://www.w3.org/2000/svg">
<g clip-path="url(#clip0_1_33)">
<path d="M11.6667 26.6667C11.6667 25.7462 12.4129 25 13.3333 25H21.6667C22.5872 25 23.3333 25.7462 23.3333 26.6667C23.3333 27.5872 22.5872 28.3334 21.6667 28.3334H13.3333C12.4129 28.3334 11.6667 27.5872 11.6667 26.6667ZM11.6667 20C11.6667 19.0795 12.4129 18.3334 13.3333 18.3334H26.6667C27.5872 18.3334 28.3333 19.0795 28.3333 20C28.3333 20.9205 27.5872 21.6667 26.6667 21.6667H13.3333C12.4129 21.6667 11.6667 20.9205 11.6667 20ZM11.6667 13.3334C11.6667 12.4129 12.4129 11.6667 13.3333 11.6667H26.6667C27.5872 11.6667 28.3333 12.4129 28.3333 13.3334C28.3333 14.2538 27.5872 15 26.6667 15H13.3333C12.4129 15 11.6667 14.2538 11.6667 13.3334ZM31.6667 5.00002H24.7C24 3.06669 22.1667 1.66669 20 1.66669C17.8333 1.66669 16 3.06669 15.3 5.00002H8.33333C8.1 5.00002 7.88333 5.01669 7.66667 5.06669C7.01667 5.20002 6.43333 5.53335 5.98333 5.98335C5.68333 6.28335 5.43333 6.65002 5.26667 7.05002C5.1 7.43335 5 7.86669 5 8.33335V31.6667C5 32.1167 5.1 32.5667 5.26667 32.9667C5.43333 33.3667 5.68333 33.7167 5.98333 34.0334C6.43333 34.4834 7.01667 34.8167 7.66667 34.95C7.88333 34.9834 8.1 35 8.33333 35H31.6667C33.5 35 35 33.5 35 31.6667V8.33335C35 6.50002 33.5 5.00002 31.6667 5.00002ZM20 4.58335C20.6833 4.58335 21.25 5.15002 21.25 5.83335C21.25 6.51669 20.6833 7.08335 20 7.08335C19.3167 7.08335 18.75 6.51669 18.75 5.83335C18.75 5.15002 19.3167 4.58335 20 4.58335ZM31.6667 31.6667H8.33333V8.33335H31.6667V31.6667Z" fill="#099A71"/>
</g>
<defs>
<clipPath id="clip0_1_33">
<rect width="40" height="40" fill="white"/>
</clipPath>
</defs>
</svg>
