<svg width="65" height="65" viewBox="0 0 65 65" fill="none" xmlns="http://www.w3.org/2000/svg">
<g clip-path="url(#clip0_39_962)">
<path d="M32.1101 64.665C49.7832 64.665 64.1101 50.3382 64.1101 32.665C64.1101 14.9919 49.7832 0.665039 32.1101 0.665039C14.437 0.665039 0.110107 14.9919 0.110107 32.665C0.110107 50.3382 14.437 64.665 32.1101 64.665Z" fill="#FDF6E7"/>
<path d="M41.4434 20.6647H35.8701C35.3101 19.118 33.8434 17.998 32.1101 17.998C30.3768 17.998 28.9101 19.118 28.3501 20.6647H22.7768C21.3101 20.6647 20.1101 21.8647 20.1101 23.3313V41.998C20.1101 43.4647 21.3101 44.6647 22.7768 44.6647H41.4434C42.9101 44.6647 44.1101 43.4647 44.1101 41.998V23.3313C44.1101 21.8647 42.9101 20.6647 41.4434 20.6647ZM32.1101 20.6647C32.8434 20.6647 33.4434 21.2647 33.4434 21.998C33.4434 22.7313 32.8434 23.3313 32.1101 23.3313C31.3768 23.3313 30.7768 22.7313 30.7768 21.998C30.7768 21.2647 31.3768 20.6647 32.1101 20.6647ZM34.7768 39.3313H25.4434V36.6647H34.7768V39.3313ZM38.7768 33.998H25.4434V31.3313H38.7768V33.998ZM38.7768 28.6647H25.4434V25.998H38.7768V28.6647Z" fill="#ECA400"/>
</g>
<defs>
<clipPath id="clip0_39_962">
<rect width="64" height="64" fill="white" transform="translate(0.110107 0.665039)"/>
</clipPath>
</defs>
</svg>
