<svg width="65" height="65" viewBox="0 0 65 65" fill="none" xmlns="http://www.w3.org/2000/svg">
<g clip-path="url(#clip0_39_952)">
<path d="M32.1101 64.665C49.7832 64.665 64.1101 50.3382 64.1101 32.665C64.1101 14.9919 49.7832 0.665039 32.1101 0.665039C14.437 0.665039 0.110107 14.9919 0.110107 32.665C0.110107 50.3382 14.437 64.665 32.1101 64.665Z" fill="#FFEBF0"/>
<path d="M42.7768 40.665C44.2434 40.665 45.4301 39.465 45.4301 37.9983L45.4434 23.3317C45.4434 21.865 44.2434 20.665 42.7768 20.665H21.4434C19.9768 20.665 18.7768 21.865 18.7768 23.3317V37.9983C18.7768 39.465 19.9768 40.665 21.4434 40.665H16.1101C16.1101 42.1317 17.3101 43.3317 18.7768 43.3317H45.4434C46.9101 43.3317 48.1101 42.1317 48.1101 40.665H42.7768ZM22.7768 23.3317H41.4434C42.1768 23.3317 42.7768 23.9317 42.7768 24.665V36.665C42.7768 37.3983 42.1768 37.9983 41.4434 37.9983H22.7768C22.0434 37.9983 21.4434 37.3983 21.4434 36.665V24.665C21.4434 23.9317 22.0434 23.3317 22.7768 23.3317ZM32.1101 41.9983C31.3768 41.9983 30.7768 41.3983 30.7768 40.665C30.7768 39.9317 31.3768 39.3317 32.1101 39.3317C32.8434 39.3317 33.4434 39.9317 33.4434 40.665C33.4434 41.3983 32.8434 41.9983 32.1101 41.9983Z" fill="#E24353"/>
</g>
<defs>
<clipPath id="clip0_39_952">
<rect width="64" height="64" fill="white" transform="translate(0.110107 0.665039)"/>
</clipPath>
</defs>
</svg>
