<svg width="20" height="20" viewBox="0 0 20 20" fill="none" xmlns="http://www.w3.org/2000/svg">
<g clip-path="url(#clip0_1_729)">
<path d="M18 11.333H11.333V18C11.333 18.733 10.733 19.333 9.99999 19.333C9.26699 19.333 8.66699 18.733 8.66699 18V11.333H1.99999C1.26699 11.333 0.666992 10.733 0.666992 9.99999C0.666992 9.26699 1.26699 8.66699 1.99999 8.66699H8.66699V1.99999C8.66699 1.26699 9.26699 0.666992 9.99999 0.666992C10.733 0.666992 11.333 1.26699 11.333 1.99999V8.66699H18C18.733 8.66699 19.333 9.26699 19.333 9.99999C19.333 10.733 18.733 11.333 18 11.333Z" fill="#099A71"/>
</g>
<defs>
<clipPath id="clip0_1_729">
<rect width="20" height="20" fill="white"/>
</clipPath>
</defs>
</svg>
