<svg width="83" height="83" viewBox="0 0 83 83" fill="none" xmlns="http://www.w3.org/2000/svg">
<g clip-path="url(#clip0_1_269)">
<path d="M41.2943 14.2199L24.9774 19.6662H19.8456L41.2943 12.074V14.2199Z" fill="#C5C7C6"/>
<path d="M41.2943 14.2199L57.6111 19.6662H62.743L41.2943 12.074V14.2199Z" fill="#C5C7C6"/>
<path d="M17.0232 42.5792H7.35721V64.7466H17.0232V42.5792Z" fill="white"/>
<path d="M17.0233 65.0286H7.35721C7.20496 65.0286 7.0787 64.9024 7.0787 64.7502V42.5828C7.0787 42.4305 7.20496 42.3043 7.35721 42.3043H17.0233C17.1756 42.3043 17.3018 42.4305 17.3018 42.5828V64.7502C17.3018 64.9024 17.1756 65.0286 17.0233 65.0286ZM7.63572 64.4718H16.7448V42.8612H7.63572V64.4718Z" fill="#343836"/>
<path d="M18.932 35.7369H5.29254V42.5791H18.932V35.7369Z" fill="white"/>
<path d="M18.9356 42.8573H5.29621C5.14396 42.8573 5.0177 42.7311 5.0177 42.5789V35.7368C5.0177 35.5845 5.14396 35.4583 5.29621 35.4583H18.9356C19.0879 35.4583 19.2141 35.5845 19.2141 35.7368V42.5789C19.2141 42.7348 19.0879 42.8573 18.9356 42.8573ZM5.57104 42.3005H18.6535V36.0152H5.57104V42.3005Z" fill="#343836"/>
<path d="M18.932 64.7502H5.29254V68.2223H18.932V64.7502Z" fill="white"/>
<path d="M18.9356 68.4998H5.29621C5.14396 68.4998 5.0177 68.3735 5.0177 68.2213V64.7502C5.0177 64.598 5.14396 64.4717 5.29621 64.4717H18.9356C19.0879 64.4717 19.2141 64.598 19.2141 64.7502V68.2213C19.2141 68.3735 19.0879 68.4998 18.9356 68.4998ZM5.57104 67.9429H18.6535V65.0286H5.57104V67.9429Z" fill="#343836"/>
<path d="M46.1068 42.5792H36.4407V64.7466H46.1068V42.5792Z" fill="white"/>
<path d="M46.1069 65.0286H36.4408C36.2886 65.0286 36.1623 64.9024 36.1623 64.7502V42.5828C36.1623 42.4305 36.2886 42.3043 36.4408 42.3043H46.1069C46.2591 42.3043 46.3854 42.4305 46.3854 42.5828V64.7502C46.3854 64.9024 46.2591 65.0286 46.1069 65.0286ZM36.7194 64.4718H45.8284V42.8612H36.7194V64.4718Z" fill="#343836"/>
<path d="M48.0192 42.8573H34.3798C34.2276 42.8573 34.1013 42.7311 34.1013 42.5789V35.7368C34.1013 35.5845 34.2276 35.4583 34.3798 35.4583H48.0192C48.1715 35.4583 48.2977 35.5845 48.2977 35.7368V42.5789C48.2977 42.7348 48.1752 42.8573 48.0192 42.8573ZM34.6584 42.3005H47.7407V36.0152H34.6584V42.3005Z" fill="#343836"/>
<path d="M48.0192 68.4998H34.3798C34.2276 68.4998 34.1013 68.3735 34.1013 68.2213V64.7502C34.1013 64.598 34.2276 64.4717 34.3798 64.4717H48.0192C48.1715 64.4717 48.2977 64.598 48.2977 64.7502V68.2213C48.2977 68.3735 48.1752 68.4998 48.0192 68.4998ZM34.6584 67.9429H47.7407V65.0286H34.6584V67.9429Z" fill="#343836"/>
<path d="M75.1905 42.5792H65.5244V64.7466H75.1905V42.5792Z" fill="white"/>
<path d="M75.1905 65.0286H65.5244C65.3722 65.0286 65.2458 64.9024 65.2458 64.7502V42.5828C65.2458 42.4305 65.3722 42.3043 65.5244 42.3043H75.1905C75.3428 42.3043 75.4689 42.4305 75.4689 42.5828V64.7502C75.4689 64.9024 75.3465 65.0286 75.1905 65.0286ZM65.8028 64.4718H74.9119V42.8612H65.8028V64.4718Z" fill="#343836"/>
<path d="M77.1029 35.7369H63.4634V42.5791H77.1029V35.7369Z" fill="white"/>
<path d="M77.1066 42.8573H63.4672C63.315 42.8573 63.1887 42.7311 63.1887 42.5789V35.7368C63.1887 35.5845 63.315 35.4583 63.4672 35.4583H77.1066C77.2589 35.4583 77.3852 35.5845 77.3852 35.7368V42.5789C77.3852 42.7348 77.2589 42.8573 77.1066 42.8573ZM63.742 42.3005H76.8245V36.0152H63.742V42.3005Z" fill="#343836"/>
<path d="M77.1029 64.7502H63.4634V68.2223H77.1029V64.7502Z" fill="white"/>
<path d="M77.1066 68.4998H63.4672C63.315 68.4998 63.1887 68.3735 63.1887 68.2213V64.7502C63.1887 64.598 63.315 64.4717 63.4672 64.4717H77.1066C77.2589 64.4717 77.3852 64.598 77.3852 64.7502V68.2213C77.3852 68.3735 77.2589 68.4998 77.1066 68.4998ZM63.742 67.9429H76.8245V65.0286H63.742V67.9429Z" fill="#343836"/>
<path d="M79.6392 36.016H2.54834C2.39609 36.016 2.26984 35.8897 2.26984 35.7375V33.3163C2.26984 33.164 2.39609 33.0378 2.54834 33.0378H79.6392C79.7915 33.0378 79.9177 33.164 79.9177 33.3163V35.7375C79.9177 35.8897 79.7915 36.016 79.6392 36.016ZM2.82685 35.4589H79.3606V33.5948H2.82685V35.4589Z" fill="#343836"/>
<path d="M79.6392 22.3651H2.54834C2.39609 22.3651 2.26984 22.2388 2.26984 22.0865V19.6655C2.26984 19.5132 2.39609 19.387 2.54834 19.387H79.6392C79.7915 19.387 79.9177 19.5132 79.9177 19.6655V22.0865C79.9177 22.2388 79.7915 22.3651 79.6392 22.3651ZM2.82685 21.808H79.3606V19.944H2.82685V21.808Z" fill="#343836"/>
<path d="M79.6392 70.9174H2.54834C2.39609 70.9174 2.26984 70.7911 2.26984 70.6389V68.2177C2.26984 68.0655 2.39609 67.9392 2.54834 67.9392H79.6392C79.7915 67.9392 79.9177 68.0655 79.9177 68.2177V70.6389C79.9177 70.7949 79.7915 70.9174 79.6392 70.9174ZM2.82685 70.3604H79.3606V68.4962H2.82685V70.3604Z" fill="#343836"/>
<path d="M81.8152 73.3381H0.372257C0.220007 73.3381 0.09375 73.2118 0.09375 73.0596V70.6384C0.09375 70.4862 0.220007 70.3599 0.372257 70.3599H81.8152C81.9674 70.3599 82.0938 70.4862 82.0938 70.6384V73.0596C82.0938 73.2118 81.9674 73.3381 81.8152 73.3381ZM0.650765 72.7811H81.5368V70.9169H0.650765V72.7811Z" fill="#343836"/>
<path d="M77.1029 22.0859H5.29254V33.32H77.1029V22.0859Z" fill="#099A71"/>
<path d="M77.1066 33.5947H5.29621C5.14396 33.5947 5.0177 33.4685 5.0177 33.3163V22.0823C5.0177 21.9301 5.14396 21.8038 5.29621 21.8038H77.1066C77.2589 21.8038 77.385 21.9301 77.385 22.0823V33.3163C77.385 33.4722 77.2589 33.5947 77.1066 33.5947ZM5.57104 33.0378H76.8243V22.3607H5.57104V33.0378Z" fill="#343836"/>
<path d="M71.9078 19.9439H10.2833C10.1459 19.9439 10.0308 19.8473 10.0085 19.7136C9.98627 19.58 10.0642 19.45 10.1905 19.4055L41.1827 8.51671C41.2422 8.49443 41.309 8.49443 41.3684 8.51671L72.0005 19.4055C72.1269 19.45 72.2048 19.58 72.1825 19.7136C72.1565 19.8436 72.0415 19.9439 71.9078 19.9439ZM11.9135 19.387H70.2924L41.2756 9.06987L11.9135 19.387Z" fill="#343836"/>
<path d="M56.6122 19.6654L41.2943 14.2191L25.7982 19.6654" fill="#343836"/>
<path d="M25.891 19.929L25.7053 19.4018L41.2015 13.9555C41.2609 13.9333 41.3277 13.9333 41.3871 13.9555L56.705 19.4018L56.5194 19.9253L41.2943 14.5124L25.891 19.929Z" fill="#343836"/>
<path d="M40.3418 42.8256H36.812V64.3864H40.3418V42.8256Z" fill="#C5C7C6"/>
<path d="M11.2582 42.8256H7.72839V64.3864H11.2582V42.8256Z" fill="#C5C7C6"/>
<path d="M69.4292 42.8256H65.8994V64.3864H69.4292V42.8256Z" fill="#C5C7C6"/>
<path d="M38.1268 65.1104H34.7252V67.8583H38.1268V65.1104Z" fill="#C5C7C6"/>
<path d="M38.1268 39.4716H34.7252V42.2196H38.1268V39.4716Z" fill="#C5C7C6"/>
<path d="M9.05794 39.4716H5.65646V42.2196H9.05794V39.4716Z" fill="#C5C7C6"/>
<path d="M67.2251 65.1104H63.8236V67.8583H67.2251V65.1104Z" fill="#C5C7C6"/>
<path d="M67.2251 39.4716H63.8236V42.2196H67.2251V39.4716Z" fill="#C5C7C6"/>
<path d="M9.05794 65.1104H5.65646V67.8583H9.05794V65.1104Z" fill="#C5C7C6"/>
<path d="M48.0194 35.7369H34.3799V40.5484L48.0194 37.2219V35.7369Z" fill="#343836"/>
<path d="M34.3798 40.8266C34.3167 40.8266 34.2573 40.8044 34.209 40.7672C34.1422 40.7153 34.1013 40.6336 34.1013 40.5483V35.7368C34.1013 35.5845 34.2276 35.4583 34.3798 35.4583H48.0192C48.1715 35.4583 48.2977 35.5845 48.2977 35.7368V37.2218C48.2977 37.3517 48.2087 37.4631 48.0862 37.4928L34.4467 40.8193C34.4244 40.823 34.4021 40.8266 34.3798 40.8266ZM34.6584 36.0152V40.1917L47.7407 37.0028V36.0152H34.6584Z" fill="#343836"/>
<path d="M18.9357 35.7369H5.29254V40.5484L18.9357 37.2219V35.7369Z" fill="#343836"/>
<path d="M5.29258 40.8266C5.22945 40.8266 5.17 40.8044 5.12173 40.7672C5.05489 40.7153 5.01407 40.6336 5.01407 40.5483V35.7368C5.01407 35.5845 5.14033 35.4583 5.29258 35.4583H18.932C19.0842 35.4583 19.2105 35.5845 19.2105 35.7368V37.2218C19.2105 37.3517 19.1213 37.4631 18.9988 37.4928L5.35939 40.8193C5.33711 40.823 5.31486 40.8266 5.29258 40.8266ZM5.57108 36.0152V40.1917L18.6535 37.0028V36.0152H5.57108Z" fill="#343836"/>
<path d="M77.1065 35.7369H63.4634V40.5484L77.1065 37.2219V35.7369Z" fill="#343836"/>
<path d="M63.4634 40.8266C63.4003 40.8266 63.3409 40.8044 63.2926 40.7672C63.2258 40.7153 63.1849 40.6336 63.1849 40.5483V35.7368C63.1849 35.5845 63.3112 35.4583 63.4634 35.4583H77.1029C77.2552 35.4583 77.3814 35.5845 77.3814 35.7368V37.2218C77.3814 37.3517 77.2923 37.4631 77.1697 37.4928L63.5303 40.8193C63.508 40.823 63.4857 40.8266 63.4634 40.8266ZM63.7419 36.0152V40.1917L76.8244 37.0028V36.0152H63.7419Z" fill="#343836"/>
<path d="M79.2789 69.4576H2.89362V70.2782H79.2789V69.4576Z" fill="#C5C7C6"/>
<path d="M81.455 71.8745H0.71759V72.6951H81.455V71.8745Z" fill="#C5C7C6"/>
<path d="M38.2715 26.1667V24.7556H40.5552V27.0467H40.0428L38.7839 25.7805L38.7208 25.7173L38.2715 26.1667Z" fill="white"/>
<path d="M37.1054 27.5851L38.7207 25.9623L40.3324 27.5851L39.9722 27.949H38.1006V28.5803L37.1054 27.5851Z" fill="white"/>
<path d="M38.2715 30.41H39.6826L39.2964 30.0238L39.2332 29.9644L40.5552 28.6349V28.1224H38.2715V30.41Z" fill="white"/>
<path d="M41.0937 31.5796L39.4784 29.9643L41.0937 28.3452L41.4577 28.7091V30.5844H42.089L41.0937 31.5796Z" fill="white"/>
<path d="M43.916 30.41H41.6323V28.1224H42.1484L43.4072 29.3851L43.4704 29.4482L43.5298 29.3851L43.916 28.9988V30.41Z" fill="white"/>
<path d="M45.082 27.5851L43.4703 29.2005L41.8549 27.5851L42.2188 27.2175H44.0905V26.5862L45.082 27.5851Z" fill="white"/>
<path d="M43.916 24.7556V27.0467H41.6323V26.5269L42.8911 25.2642L42.9542 25.2049L42.8911 25.1418L42.5086 24.7556H43.916Z" fill="white"/>
<path d="M42.7089 25.2049L41.0936 26.8202L40.7297 26.4563V24.5811H40.1022L41.0936 23.5858L42.7089 25.2049Z" fill="white"/>
</g>
<defs>
<clipPath id="clip0_1_269">
<rect width="82" height="82" fill="white" transform="translate(0.09375 0.5)"/>
</clipPath>
</defs>
</svg>
