<svg width="65" height="65" viewBox="0 0 65 65" fill="none" xmlns="http://www.w3.org/2000/svg">
<g clip-path="url(#clip0_39_972)">
<path d="M32.1101 64.665C49.7832 64.665 64.1101 50.3382 64.1101 32.665C64.1101 14.9919 49.7832 0.665039 32.1101 0.665039C14.437 0.665039 0.110107 14.9919 0.110107 32.665C0.110107 50.3382 14.437 64.665 32.1101 64.665Z" fill="#E7F4F9"/>
<path d="M28.8721 20.5518C29.7563 19.2723 30.7058 17.951 32.0573 17.1318C33.39 17.9307 34.3302 19.2285 35.2018 20.4853C37.2547 23.5949 38.5098 27.33 38.2566 31.0839C38.9201 31.64 39.6027 32.174 40.2563 32.7415C41.1945 33.6038 41.6325 34.9489 41.4066 36.1994C41.0919 37.7791 40.7894 39.3624 40.4563 40.9377C40.2711 41.7482 39.1745 42.1193 38.5298 41.6015C37.4598 40.7083 36.4163 39.7822 35.3466 38.8879C34.5372 39.6668 33.462 40.1862 32.3332 40.2487C31.0338 40.3404 29.7473 39.8015 28.8052 38.9211C28.0377 39.5087 27.3261 40.214 26.5762 40.8433C26.2138 41.1345 25.9124 41.5173 25.4835 41.7162C24.8185 42.0015 23.9621 41.5757 23.8118 40.8609C23.4693 39.3207 23.1116 37.7834 22.7793 36.2409C22.5092 34.936 22.9875 33.5152 23.993 32.6404C24.575 32.1515 25.1652 31.6725 25.7581 31.1969C25.9233 31.11 25.8403 30.9097 25.8497 30.7625C25.673 27.1405 26.9101 23.5605 28.8721 20.5518ZM29.9223 25.3225C29.1458 26.3222 29.2398 27.8705 30.1403 28.7633C31.0938 29.8139 32.8997 29.8522 33.897 28.8439C34.6668 28.1406 34.9271 26.9598 34.5596 25.9895C34.223 25.054 33.3216 24.3523 32.3302 24.265C31.4147 24.1597 30.4668 24.5809 29.9223 25.3225Z" fill="#0090C1"/>
<path d="M28.5015 42.1533C28.4882 41.6992 29.0534 41.3869 29.4354 41.6272C31.0522 42.4597 33.0621 42.4594 34.6789 41.6268C35.0499 41.399 35.5999 41.6726 35.6136 42.1145C35.619 43.079 35.6201 44.0445 35.6151 45.0093C35.6225 45.4801 35.0006 45.7803 34.635 45.4859C34.3568 45.2405 34.1058 44.9646 33.8381 44.7071C33.4146 45.5322 33.0154 46.3697 32.5884 47.1928C32.3834 47.585 31.7426 47.5877 31.5336 47.1994C31.1042 46.3747 30.7078 45.5322 30.2761 44.7083C30.0122 44.9681 29.7606 45.2425 29.4827 45.4875C29.1187 45.7834 28.4979 45.4774 28.503 45.0096C28.4952 44.0578 28.5003 43.1055 28.5015 42.1533Z" fill="#0090C1"/>
<path d="M32.0368 28.247C32.7552 28.247 33.3376 27.6646 33.3376 26.9462C33.3376 26.2278 32.7552 25.6455 32.0368 25.6455C31.3184 25.6455 30.7361 26.2278 30.7361 26.9462C30.7361 27.6646 31.3184 28.247 32.0368 28.247Z" fill="#0090C1"/>
</g>
<defs>
<clipPath id="clip0_39_972">
<rect width="64" height="64" fill="white" transform="translate(0.110107 0.665039)"/>
</clipPath>
</defs>
</svg>
