<svg width="82" height="83" viewBox="0 0 82 83" fill="none" xmlns="http://www.w3.org/2000/svg">
<path d="M44.6504 51.6354C37.5815 60.3493 27.4839 64.734 22.0933 66.0844L17.2306 62.1386C17.4251 56.6314 19.5814 45.8446 26.7003 37.0696C36.9757 24.41 49.2796 22.8707 52.4862 22.6873C52.9585 22.6596 53.3753 22.9818 53.4754 23.4431C54.12 26.4885 55.5983 38.1478 44.6504 51.6354Z" fill="white"/>
<path d="M22.0933 66.3622C22.0321 66.3622 21.9654 66.34 21.921 66.3011L17.0583 62.3498C16.9917 62.2942 16.9528 62.2109 16.9583 62.122C17.1917 55.6143 19.8259 45.1 26.4891 36.8863C36.759 24.2378 48.974 22.5984 52.4751 22.3983C53.0864 22.365 53.6254 22.7707 53.7532 23.3709C54.4423 26.6274 55.8372 38.2977 44.8727 51.802C38.215 60.0101 28.4786 64.7617 22.1711 66.3456C22.1377 66.3622 22.1155 66.3622 22.0933 66.3622ZM17.5141 62.0108L22.16 65.7843C28.3897 64.1893 37.9038 59.5101 44.4336 51.4631C55.2426 38.1478 53.8755 26.6886 53.2031 23.4987C53.1364 23.1708 52.8418 22.9596 52.5028 22.9652C49.0629 23.1597 37.0424 24.7713 26.917 37.2474C20.3872 45.2889 17.7752 55.5755 17.5141 62.0108Z" fill="#343836"/>
<path d="M4.63779 65.8565C4.57666 65.8565 4.51553 65.8344 4.46551 65.7955L3.10397 64.6896C3.01505 64.6173 2.97615 64.495 3.01506 64.3839C3.06507 64.2338 8.04997 49.5569 19.4369 50.4016C19.5202 50.4072 19.6036 50.4517 19.6481 50.524C19.6981 50.5962 19.7092 50.6851 19.6814 50.7685C19.6592 50.824 17.6975 56.5758 17.5085 62.1387C17.503 62.2443 17.4418 62.3387 17.3473 62.3832C17.2529 62.4276 17.1362 62.4109 17.0584 62.3442C13.9963 59.8601 13.0627 60.4604 5.79371 65.1563L4.79339 65.801C4.74338 65.8399 4.6878 65.8565 4.63779 65.8565ZM3.60413 64.3783L4.65446 65.2342L5.48805 64.6951C12.4125 60.227 13.9074 59.26 16.975 61.583C17.2251 56.9037 18.6255 52.2245 19.0368 50.9352C9.00028 50.4906 4.20432 62.7389 3.60413 64.3783Z" fill="#343836"/>
<path d="M18.8089 51.6909C10.1673 51.9965 5.57141 60.7604 3.93201 64.6505L4.13762 64.8228C4.13762 64.8228 10.1617 53.6082 18.3866 53.1469L18.8089 51.6909Z" fill="#A1A3A2"/>
<path d="M22.0933 66.0843C25.4554 68.813 24.7774 70.0689 21.3152 79.1162L22.6768 80.2221C22.6768 80.2221 35.9977 72.4696 32.8522 61.5884C32.8522 61.5884 27.6061 64.7339 22.0933 66.0843Z" fill="#A1A3A2"/>
<path d="M22.6768 80.5C22.6157 80.5 22.5545 80.4777 22.5045 80.4388L21.143 79.3329C21.0485 79.2551 21.0152 79.1272 21.0596 79.0161L21.4875 77.9046C24.5885 69.8243 24.9831 68.7852 21.921 66.301C21.8376 66.2344 21.8043 66.1288 21.8265 66.0232C21.8488 65.9176 21.9266 65.8398 22.0322 65.8121C27.4394 64.4839 32.6633 61.3773 32.7133 61.3495C32.7855 61.3051 32.8745 61.2995 32.9578 61.3273C33.0356 61.3606 33.0967 61.4272 33.1245 61.5106C36.2922 72.4696 22.9547 80.3832 22.8213 80.461C22.7768 80.4888 22.7268 80.5 22.6768 80.5ZM21.6487 79.0272L22.699 79.8831C24.1828 78.9606 35.1863 71.7305 32.68 62.0108C31.5018 62.6777 27.2171 65.0118 22.6879 66.2233C25.5888 68.7519 24.9553 70.4134 22.0044 78.1103L21.6487 79.0272Z" fill="#343836"/>
<path d="M52.4807 22.9651C52.9252 22.9485 53.1642 23.1986 53.2642 23.6932C53.8644 26.7553 55.3927 37.9699 44.4448 51.463C37.3759 60.1769 27.5506 64.4449 22.16 65.7898L18.7645 63.0334C18.7645 63.0334 30.4293 61.116 42.3886 48.3564C50.8801 39.2814 53.3365 27.3832 52.4807 22.9651Z" fill="#C5C7C6"/>
<path d="M36.5089 50.7629C40.3608 50.7629 43.4834 47.6403 43.4834 43.7884C43.4834 39.9365 40.3608 36.814 36.5089 36.814C32.6571 36.814 29.5345 39.9365 29.5345 43.7884C29.5345 47.6403 32.6571 50.7629 36.5089 50.7629Z" fill="#C5C7C6"/>
<path d="M36.4645 49.8625C40.0463 49.8625 42.9498 46.959 42.9498 43.3772C42.9498 39.7954 40.0463 36.8918 36.4645 36.8918C32.8827 36.8918 29.9791 39.7954 29.9791 43.3772C29.9791 46.959 32.8827 49.8625 36.4645 49.8625Z" fill="white"/>
<path d="M36.4534 50.1459C34.9084 50.1459 33.4191 49.618 32.202 48.6343C30.8016 47.4951 29.9235 45.8779 29.7346 44.0829C29.5456 42.2879 30.0736 40.5207 31.2128 39.1203C32.3521 37.7199 33.9692 36.8417 35.7643 36.6528C37.5648 36.4694 39.3265 36.9918 40.7269 38.1311C43.6223 40.4818 44.0669 44.7498 41.7161 47.6451C40.5769 49.0456 38.9597 49.9237 37.1647 50.1127C36.9257 50.1349 36.6868 50.1459 36.4534 50.1459ZM36.4756 37.1697C36.2589 37.1697 36.0421 37.1807 35.8198 37.2029C34.1693 37.3752 32.6855 38.1755 31.6407 39.4648C30.596 40.7541 30.1125 42.3712 30.2848 44.0217C30.457 45.6723 31.2573 47.1561 32.5466 48.2009C33.8359 49.2456 35.4475 49.7292 37.1036 49.5569C38.7541 49.3847 40.2379 48.5844 41.2827 47.2951C43.4389 44.6387 43.0332 40.7208 40.3768 38.5646C39.2598 37.6532 37.8983 37.1697 36.4756 37.1697Z" fill="#343836"/>
<path d="M36.4645 47.3506C38.659 47.3506 40.4379 45.5717 40.4379 43.3772C40.4379 41.1827 38.659 39.4037 36.4645 39.4037C34.27 39.4037 32.491 41.1827 32.491 43.3772C32.491 45.5717 34.27 47.3506 36.4645 47.3506Z" fill="#343836"/>
<path d="M36.4589 47.6285C35.5197 47.6285 34.5694 47.3173 33.7859 46.6782C31.9631 45.2 31.6852 42.5158 33.1634 40.6985C34.6417 38.8813 37.3259 38.5979 39.1431 40.0762C40.9659 41.5544 41.2438 44.2386 39.7655 46.0559C38.9264 47.0951 37.6982 47.6285 36.4589 47.6285ZM36.47 39.6872C35.3919 39.6872 34.3249 40.154 33.5969 41.0543C32.3132 42.6381 32.5577 44.9665 34.136 46.2503C35.7198 47.534 38.0483 47.2951 39.3376 45.7112C40.6213 44.1274 40.3768 41.799 38.7985 40.5152C38.1094 39.954 37.287 39.6872 36.47 39.6872Z" fill="#343836"/>
<path d="M5.78006 76.7668C5.78595 76.582 5.79514 76.3624 5.80941 76.1147C5.85522 75.3195 5.95329 74.2376 6.16192 73.0881C6.37079 71.9374 6.68899 70.7275 7.17148 69.6723C7.6549 68.6151 8.29374 67.7341 9.1321 67.2122C10.9204 66.0992 12.384 65.7352 13.5301 65.6086C14.0666 65.5493 14.5353 65.5417 14.9464 65.535C14.9769 65.5345 15.0071 65.534 15.0369 65.5335C15.3958 65.5274 15.7296 65.5197 16.012 65.4624L18.0519 67.3771C18.0461 70.234 17.81 71.7862 17.1522 72.7666C16.4965 73.7438 15.3893 74.1997 13.4411 74.7568C12.2275 74.9984 11.3447 74.9604 10.5595 74.9194C10.5341 74.9181 10.5088 74.9168 10.4835 74.9154C9.72623 74.8756 9.02638 74.8388 8.22449 75.0884C7.47664 75.3212 6.74901 75.8731 6.22149 76.3466C6.05523 76.4958 5.90633 76.6395 5.78006 76.7668Z" fill="url(#paint0_linear_1_81)" stroke="#343836" stroke-width="0.5"/>
<path d="M65.1969 25.4949C65.1969 25.6547 65.3237 25.7816 65.4835 25.7816C65.6445 25.7816 65.77 25.6498 65.7701 25.4951C65.7775 19.3519 71.0465 14.3457 77.5203 14.3457C77.68 14.3457 77.8069 14.2188 77.8069 14.059C77.8069 13.8993 77.68 13.7724 77.5203 13.7724C74.2989 13.7724 71.1782 12.4985 68.9619 10.2785C66.8973 8.21023 65.7664 5.51459 65.7701 2.68677C65.7701 2.52703 65.6432 2.40002 65.4835 2.40002C65.3238 2.40002 65.1969 2.52684 65.1969 2.68652C65.1895 8.79627 59.9577 13.7724 53.525 13.7724C53.3653 13.7724 53.2384 13.8993 53.2384 14.059C53.2384 14.2188 53.3653 14.3457 53.525 14.3457C56.7462 14.3457 59.7438 15.5747 61.9715 17.8024C64.0546 19.8892 65.2006 22.6222 65.1969 25.4949ZM68.5553 10.681C70.2489 12.3781 72.4435 13.5464 74.8145 14.0552C70.1803 15.0496 66.5166 18.5419 65.4881 22.9692C65.0134 20.8904 63.9491 18.9672 62.3779 17.396C60.6828 15.6974 58.5589 14.5553 56.2326 14.0551C60.8313 13.0616 64.4602 9.59012 65.4797 5.19414C65.9535 7.23712 67.0063 9.12844 68.5553 10.681Z" fill="#343836" stroke="#343836" stroke-width="0.2"/>
<path d="M40.6585 14.7918C41.1638 15.2938 41.782 15.6797 42.4572 15.9193C41.1571 16.3822 40.1223 17.3728 39.6437 18.6197C39.422 18.0355 39.0741 17.4967 38.6127 17.0353C38.1087 16.5313 37.5094 16.1541 36.8525 15.9189C38.1399 15.4568 39.1649 14.4726 39.6395 13.2352C39.8603 13.8089 40.2042 14.3375 40.6585 14.7918ZM39.3527 20.1777C39.3527 20.3375 39.4796 20.4643 39.6393 20.4643C39.7977 20.4643 39.9269 20.3384 39.9222 20.1762C39.9268 17.9901 41.8026 16.2058 44.1181 16.2058C44.2779 16.2058 44.4048 16.0789 44.4048 15.9191C44.4048 15.7594 44.2779 15.6325 44.1181 15.6325C42.9682 15.6325 41.8518 15.1759 41.0611 14.3853C40.3255 13.6496 39.9259 12.6896 39.9259 11.6866C39.9259 11.5269 39.799 11.4 39.6393 11.4C39.4796 11.4 39.3528 11.5268 39.3527 11.6865C39.3491 13.8548 37.484 15.6325 35.1866 15.6325C35.0269 15.6325 34.9 15.7594 34.9 15.9191C34.9 16.0789 35.0269 16.2058 35.1866 16.2058C36.3363 16.2058 37.408 16.6471 38.2025 17.4417C38.9457 18.1849 39.3527 19.1562 39.3527 20.1777Z" fill="#343836" stroke="#343836" stroke-width="0.2"/>
<path d="M60.2618 37.8179C60.7734 38.3295 61.0501 38.9949 61.0501 39.6957C61.0501 39.8554 61.177 39.9823 61.3367 39.9823C61.4964 39.9823 61.6232 39.8555 61.6233 39.6959C61.6269 38.1995 62.9171 36.9703 64.5092 36.9703C64.6689 36.9703 64.7958 36.8434 64.7958 36.6837C64.7958 36.524 64.6689 36.3971 64.5092 36.3971C63.7139 36.3971 62.9483 36.0824 62.404 35.538C61.8996 35.0336 61.6233 34.3759 61.6233 33.6866C61.6233 33.5269 61.4964 33.4 61.3367 33.4C61.177 33.4 61.0501 33.5269 61.0501 33.6866C61.0501 35.1753 59.7675 36.3971 58.1866 36.3971C58.0269 36.3971 57.9 36.524 57.9 36.6837C57.9 36.8434 58.0269 36.9703 58.1866 36.9703C58.9784 36.9703 59.7177 37.2702 60.2618 37.8179ZM62.0009 35.944C62.3157 36.2588 62.6922 36.5094 63.1027 36.6839C62.318 37.0192 61.6867 37.6266 61.3406 38.3812C61.1796 38.0287 60.954 37.701 60.6684 37.4154C60.3551 37.1021 59.991 36.8551 59.5916 36.6835C60.3695 36.3488 60.9945 35.7451 61.3397 34.9972C61.4987 35.3444 61.7229 35.6629 62.0009 35.944Z" fill="#343836" stroke="#343836" stroke-width="0.2"/>
<defs>
<linearGradient id="paint0_linear_1_81" x1="20.8149" y1="78.064" x2="-49.3537" y2="98.7203" gradientUnits="userSpaceOnUse">
<stop offset="0.2696" stop-color="#099A71"/>
<stop offset="1" stop-color="#82CEB5"/>
</linearGradient>
</defs>
</svg>
