<svg width="56" height="57" viewBox="0 0 56 57" fill="none" xmlns="http://www.w3.org/2000/svg">
<rect y="0.5" width="56" height="56" rx="28" fill="#FFEBF0"/>
<g clip-path="url(#clip0_1_63)">
<path d="M39.1733 23.9265L37.5333 26.3932C38.3242 27.9706 38.7114 29.7196 38.6602 31.4835C38.6091 33.2473 38.1211 34.9709 37.24 36.4998H18.76C17.6149 34.5133 17.1404 32.2107 17.4069 29.9333C17.6733 27.6559 18.6666 25.5249 20.2393 23.8564C21.8121 22.1879 23.8806 21.0706 26.1383 20.6701C28.396 20.2696 30.7227 20.6073 32.7733 21.6332L35.24 19.9932C32.7287 18.3828 29.7498 17.6612 26.7799 17.9437C23.8099 18.2263 21.0206 19.4968 18.858 21.5519C16.6954 23.6069 15.2845 26.3279 14.851 29.2796C14.4174 32.2312 14.9863 35.243 16.4667 37.8332C16.6993 38.2362 17.0335 38.5713 17.4358 38.8052C17.8381 39.0391 18.2946 39.1637 18.76 39.1665H37.2267C37.6966 39.1684 38.1586 39.046 38.566 38.8119C38.9734 38.5778 39.3117 38.2401 39.5467 37.8332C40.7752 35.7051 41.3917 33.2789 41.3282 30.8224C41.2646 28.366 40.5235 25.9749 39.1867 23.9132L39.1733 23.9265ZM26.12 33.0465C26.3677 33.2944 26.6618 33.4911 26.9855 33.6253C27.3092 33.7595 27.6562 33.8286 28.0067 33.8286C28.3571 33.8286 28.7041 33.7595 29.0278 33.6253C29.3516 33.4911 29.6457 33.2944 29.8933 33.0465L37.44 21.7265L26.12 29.2732C25.8721 29.5208 25.6754 29.8149 25.5412 30.1387C25.407 30.4624 25.3379 30.8094 25.3379 31.1598C25.3379 31.5103 25.407 31.8573 25.5412 32.181C25.6754 32.5047 25.8721 32.7988 26.12 33.0465Z" fill="#F14A55"/>
</g>
<defs>
<clipPath id="clip0_1_63">
<rect width="32" height="32" fill="white" transform="translate(12 12.5)"/>
</clipPath>
</defs>
</svg>
