<svg width="56" height="57" viewBox="0 0 56 57" fill="none" xmlns="http://www.w3.org/2000/svg">
<rect y="0.5" width="56" height="56" rx="28" fill="#F1F9F7"/>
<g clip-path="url(#clip0_1_55)">
<path d="M38.6666 23.1668H34.6666V17.8335H16C14.5333 17.8335 13.3333 19.0335 13.3333 20.5002V35.1668H16C16 37.3802 17.7867 39.1668 20 39.1668C22.2133 39.1668 24 37.3802 24 35.1668H32C32 37.3802 33.7866 39.1668 36 39.1668C38.2133 39.1668 40 37.3802 40 35.1668H42.6666V28.5002L38.6666 23.1668ZM20 37.1668C18.8933 37.1668 18 36.2735 18 35.1668C18 34.0602 18.8933 33.1668 20 33.1668C21.1067 33.1668 22 34.0602 22 35.1668C22 36.2735 21.1067 37.1668 20 37.1668ZM38 25.1668L40.6133 28.5002H34.6666V25.1668H38ZM36 37.1668C34.8933 37.1668 34 36.2735 34 35.1668C34 34.0602 34.8933 33.1668 36 33.1668C37.1066 33.1668 38 34.0602 38 35.1668C38 36.2735 37.1066 37.1668 36 37.1668Z" fill="#099A71"/>
</g>
<defs>
<clipPath id="clip0_1_55">
<rect width="32" height="32" fill="white" transform="translate(12 12.5)"/>
</clipPath>
</defs>
</svg>
