<svg width="65" height="65" viewBox="0 0 65 65" fill="none" xmlns="http://www.w3.org/2000/svg">
<rect x="0.5" y="0.5" width="64" height="64" rx="32" fill="#FDF6E7"/>
<g clip-path="url(#clip0_1_1982)">
<path d="M43.1666 27.1668H39.1666V21.8335H20.5C19.0333 21.8335 17.8333 23.0335 17.8333 24.5002V39.1668H20.5C20.5 41.3802 22.2867 43.1668 24.5 43.1668C26.7133 43.1668 28.5 41.3802 28.5 39.1668H36.5C36.5 41.3802 38.2866 43.1668 40.5 43.1668C42.7133 43.1668 44.5 41.3802 44.5 39.1668H47.1666V32.5002L43.1666 27.1668ZM24.5 41.1668C23.3933 41.1668 22.5 40.2735 22.5 39.1668C22.5 38.0602 23.3933 37.1668 24.5 37.1668C25.6067 37.1668 26.5 38.0602 26.5 39.1668C26.5 40.2735 25.6067 41.1668 24.5 41.1668ZM42.5 29.1668L45.1133 32.5002H39.1666V29.1668H42.5ZM40.5 41.1668C39.3933 41.1668 38.5 40.2735 38.5 39.1668C38.5 38.0602 39.3933 37.1668 40.5 37.1668C41.6066 37.1668 42.5 38.0602 42.5 39.1668C42.5 40.2735 41.6066 41.1668 40.5 41.1668Z" fill="#EFB42E"/>
</g>
<defs>
<clipPath id="clip0_1_1982">
<rect width="32" height="32" fill="white" transform="translate(16.5 16.5)"/>
</clipPath>
</defs>
</svg>
