<svg width="65" height="65" viewBox="0 0 65 65" fill="none" xmlns="http://www.w3.org/2000/svg">
<g clip-path="url(#clip0_39_941)">
<path d="M32.1101 64.665C49.7832 64.665 64.1101 50.3382 64.1101 32.665C64.1101 14.9919 49.7832 0.665039 32.1101 0.665039C14.437 0.665039 0.110107 14.9919 0.110107 32.665C0.110107 50.3382 14.437 64.665 32.1101 64.665Z" fill="#E0F3ED"/>
<path d="M37.1101 40.665C36.8449 40.665 36.5905 40.7704 36.403 40.9579C36.2155 41.1454 36.1101 41.3998 36.1101 41.665V43.165C36.1101 43.5628 35.9521 43.9444 35.6708 44.2257C35.3895 44.507 35.0079 44.665 34.6101 44.665C34.2123 44.665 33.8307 44.507 33.5494 44.2257C33.2681 43.9444 33.1101 43.5628 33.1101 43.165V33.665C33.1101 33.3998 33.0047 33.1454 32.8172 32.9579C32.6297 32.7704 32.3753 32.665 32.1101 32.665C31.8449 32.665 31.5905 32.7704 31.403 32.9579C31.2155 33.1454 31.1101 33.3998 31.1101 33.665V43.165C31.1101 44.0933 31.4788 44.9835 32.1352 45.6399C32.7916 46.2963 33.6818 46.665 34.6101 46.665C35.5384 46.665 36.4286 46.2963 37.085 45.6399C37.7414 44.9835 38.1101 44.0933 38.1101 43.165V41.665C38.1101 41.3998 38.0047 41.1454 37.8172 40.9579C37.6297 40.7704 37.3753 40.665 37.1101 40.665Z" fill="#099A71"/>
<path d="M35.4351 20.895C35.0228 20.8165 34.634 20.6446 34.2985 20.3923C33.9631 20.1401 33.6899 19.8143 33.5001 19.44L33.4401 19.325C33.3402 19.1268 33.1873 18.9602 32.9984 18.8437C32.8096 18.7271 32.592 18.6653 32.3701 18.665H31.7901C31.5605 18.6652 31.3357 18.7312 31.1425 18.8553C30.9493 18.9794 30.7958 19.1563 30.7001 19.365C30.5139 19.7627 30.2352 20.1101 29.8872 20.378C29.5393 20.646 29.1322 20.8266 28.7001 20.905C22.6101 22.135 18.1101 26.605 18.1101 31.93C18.1101 32.1241 18.1868 32.3103 18.3236 32.448C18.4604 32.5857 18.646 32.6637 18.8401 32.665H19.6801C19.8215 32.6634 19.9595 32.6211 20.0775 32.543C20.1954 32.465 20.2883 32.3545 20.3451 32.225C20.5509 31.7614 20.8866 31.3673 21.3117 31.0904C21.7367 30.8136 22.2328 30.6658 22.7401 30.665H24.4801C24.9503 30.6669 25.4113 30.795 25.815 31.036C26.2187 31.277 26.5503 31.622 26.7751 32.035C26.8838 32.2263 27.0412 32.3854 27.2314 32.496C27.4215 32.6067 27.6376 32.665 27.8576 32.665C28.0776 32.665 28.2937 32.6067 28.4838 32.496C28.674 32.3854 28.8314 32.2263 28.9401 32.035C29.1653 31.6213 29.4977 31.2758 29.9023 31.0348C30.307 30.7937 30.7691 30.666 31.2401 30.665H32.9801C33.4503 30.6669 33.9113 30.795 34.315 31.036C34.7187 31.277 35.0503 31.622 35.2751 32.035C35.3838 32.2263 35.5412 32.3854 35.7314 32.496C35.9215 32.6067 36.1376 32.665 36.3576 32.665C36.5776 32.665 36.7937 32.6067 36.9838 32.496C37.174 32.3854 37.3314 32.2263 37.4401 32.035C37.6653 31.6213 37.9977 31.2758 38.4023 31.0348C38.807 30.7937 39.2691 30.666 39.7401 30.665H41.4801C41.9865 30.6668 42.4816 30.815 42.9056 31.0918C43.3297 31.3686 43.6646 31.7621 43.8701 32.225C43.9269 32.3545 44.0198 32.465 44.1377 32.543C44.2557 32.6211 44.3937 32.6634 44.5351 32.665H45.3751C45.4716 32.665 45.5672 32.646 45.6564 32.6091C45.7455 32.5721 45.8266 32.518 45.8948 32.4497C45.9631 32.3815 46.0172 32.3004 46.0542 32.2113C46.0911 32.1221 46.1101 32.0265 46.1101 31.93C46.1101 26.585 41.5601 22.105 35.4351 20.895Z" fill="#099A71"/>
</g>
<defs>
<clipPath id="clip0_39_941">
<rect width="64" height="64" fill="white" transform="translate(0.110107 0.665039)"/>
</clipPath>
</defs>
</svg>
