<svg width="21" height="21" viewBox="0 0 21 21" fill="none" xmlns="http://www.w3.org/2000/svg">
<path d="M0.45752 0.555176H20.4575V20.5552H0.45752V0.555176Z" fill="white"/>
<path fill-rule="evenodd" clip-rule="evenodd" d="M7.72952 14.2223H9.40752L10.4575 7.55529H8.77952L7.72952 14.2223ZM13.3595 10.2623C12.7795 9.96229 12.4215 9.76329 12.4265 9.46229C12.4265 9.19229 12.7265 8.90429 13.3795 8.90429C13.9255 8.89429 14.3205 9.02129 14.6275 9.15229L14.7775 9.22729L15.0035 7.82729C14.5263 7.64373 14.0188 7.55146 13.5075 7.55529C11.8615 7.55529 10.7005 8.43329 10.6905 9.68529C10.6805 10.6153 11.5195 11.1333 12.1505 11.4413C12.8005 11.7583 13.0175 11.9613 13.0145 12.2413C13.0105 12.6743 12.4965 12.8753 12.0175 12.8753C11.3505 12.8753 10.9975 12.7753 10.4495 12.5333L10.2345 12.4323L10.0025 13.8783C10.3895 14.0583 11.1105 14.2143 11.8565 14.2223C13.6085 14.2223 14.7475 13.3573 14.7605 12.0173C14.7685 11.2803 14.3215 10.7223 13.3595 10.2623ZM19.1265 7.55529H17.8545C17.4615 7.55529 17.1655 7.67529 16.9935 8.11029L14.5495 14.2223H16.2785C16.2785 14.2223 16.5585 13.4623 16.6225 13.2803C16.8125 13.2803 18.4905 13.2553 18.7295 13.2553C18.7815 13.4873 18.9305 14.2223 18.9305 14.2223H20.4575L19.1255 7.55529H19.1265ZM17.2765 11.8413C17.4105 11.3683 17.9295 10.0593 17.9295 10.0593C17.9195 10.0743 18.0665 9.70929 18.1485 9.45929L18.2585 9.98129C18.2585 9.98129 18.5755 11.8413 18.6405 11.8413H17.2765ZM6.04552 7.55529L4.48752 12.1633L4.32052 11.2723L3.76452 8.16229C3.66752 7.74229 3.38752 7.55529 3.04352 7.55529H0.47952L0.45752 7.75529C0.87952 7.87129 1.26452 8.06029 1.62552 8.24229C1.74652 8.33729 2.16352 8.67229 2.37152 9.46729L3.54352 14.2223H5.22652L7.72952 7.55529H6.04552Z" fill="#192061"/>
</svg>
